<svg width="188" height="157" viewBox="0 0 188 157" fill="none" xmlns="http://www.w3.org/2000/svg">
<path d="M188 78C188 79.5913 187.368 81.1174 186.243 82.2426C185.118 83.3679 183.591 84 182 84H20.4901L82.2401 145.76C82.8296 146.309 83.3024 146.972 83.6303 147.708C83.9583 148.444 84.1346 149.238 84.1488 150.044C84.163 150.849 84.0148 151.65 83.7131 152.397C83.4113 153.144 82.9621 153.823 82.3924 154.392C81.8226 154.962 81.144 155.411 80.3969 155.713C79.6498 156.015 78.8495 156.163 78.0439 156.149C77.2383 156.135 76.4438 155.958 75.7078 155.63C74.9718 155.302 74.3094 154.829 73.7601 154.24L1.76009 82.24C0.636486 81.115 0.00537109 79.59 0.00537109 78C0.00537109 76.41 0.636486 74.885 1.76009 73.76L73.7601 1.75999C74.8975 0.700151 76.4019 0.123167 77.9563 0.150593C79.5107 0.178019 80.9938 0.807713 82.0931 1.90702C83.1924 3.00632 83.8221 4.4894 83.8495 6.04381C83.8769 7.59822 83.2999 9.10259 82.2401 10.24L20.4901 72H182C183.591 72 185.118 72.6321 186.243 73.7574C187.368 74.8826 188 76.4087 188 78Z" fill="black"/>
</svg>
