<svg width="34" height="32" viewBox="0 0 34 32" fill="none" xmlns="http://www.w3.org/2000/svg">
<path d="M29 26H7C6.7 26 6.4 25.8 6.2 25.6C6 25.4 6 25 6.1 24.7L8 19.9L6.1 2H0V0H7C7.5 0 7.9 0.4 8 0.9L10 19.9C10 20.1 10 20.2 9.9 20.4L8.5 24H30L29 26Z" fill="black"/>
<path d="M9.2 21L8.8 19L32 14.2V6H8V4H33C33.6 4 34 4.4 34 5V15C34 15.5 33.7 15.9 33.2 16L9.2 21ZM30 32C27.8 32 26 30.2 26 28C26 25.8 27.8 24 30 24C32.2 24 34 25.8 34 28C34 30.2 32.2 32 30 32ZM30 26C28.9 26 28 26.9 28 28C28 29.1 28.9 30 30 30C31.1 30 32 29.1 32 28C32 26.9 31.1 26 30 26ZM6 32C3.8 32 2 30.2 2 28C2 25.8 3.8 24 6 24C8.2 24 10 25.8 10 28C10 30.2 8.2 32 6 32ZM6 26C4.9 26 4 26.9 4 28C4 29.1 4.9 30 6 30C7.1 30 8 29.1 8 28C8 26.9 7.1 26 6 26Z" fill="black"/>
</svg>
