<?xml version="1.0" encoding="utf-8"?>
<!-- Generator: Adobe Illustrator 24.0.2, SVG Export Plug-In . SVG Version: 6.00 Build 0)  -->
<svg version="1.1" id="Layer_1" xmlns="http://www.w3.org/2000/svg" xmlns:xlink="http://www.w3.org/1999/xlink" x="0px" y="0px" width="36px" height="36px"
	 viewBox="0 0 635.6 689.8" style="enable-background:new 0 0 635.6 689.8;" xml:space="preserve">
<style type="text/css">
	.st0{fill:#818181;}
	.st1{fill:#040404;}
</style>
<path class="st0" d="M0,430.3c2.1-3.4,1.3-7.4,1.7-11C5,383.3,12.4,348,21,313c8.6-35,20.6-68.7,39.6-99.6
	c16.8-27.3,37.9-50.4,66.2-66.3c27.6-15.4,57-21,88.4-16.2c22.8,3.5,45.9,5.4,68.3,10.9c47.4,11.6,93.1,27.3,133.8,55
	c28.8,19.5,53.2,43,68.7,74.8c11.8,24.1,15.6,49.5,13.3,76.1c-1.2,14.2-2,28.5-3.1,42.7c-1.6,20.5-8.2,39.2-17.6,57.2
	c-11.7,22.4-23.2,44.9-38.9,64.9c-25.5,32.6-57.3,55.6-98.2,64.8c-21.9,5-44.1,5.5-66.4,3.1c-22-2.3-43.9-5.3-65.1-11.5
	c-24-6.9-46-17.3-63.2-36.1c-15.4-17-23.9-37.4-29.1-59.3c-7-29.4-10-59.3-8.7-89.5c1.2-30.2,7.1-59.4,22.5-85.9
	c18.7-32.1,47.1-51.9,82.1-62.4c53.3-15.9,100.7-3.1,143.1,31.1c17.2,13.9,31,30.7,38.1,52c10.7,31.8,6.3,62.6-9.3,91.5
	c-23.7,43.8-62.2,68.4-109.6,80.2c-5.2,1.3-10.6,1.1-15.8-0.2c-6.2-1.5-10.5-5-13.1-11c-2.3-5.3-6.4-9.9-4.6-16.2
	c1.2,1.8,2.8,3.4,3.5,5.4c3.6,10.3,11.6,13,21.3,12.7c14.3-0.5,27.1-6,39.7-12c33.9-16,60.9-39.3,75.3-74.7
	c14.1-34.5,14-68.6-8.4-100c-35.8-50-106-76.6-169.2-51.5c-35.3,14-61.2,37.3-75.8,72.7c-9.6,23.2-12.9,47.7-13.1,72.5
	c-0.2,24.8,2.3,49.4,7.9,73.6c5,21.8,13,42.2,28.5,58.9c14.9,16.1,33.6,25.7,54.2,32.2c20.2,6.4,41,9.5,61.9,12
	c18.5,2.1,37.1,2.7,55.6-0.2c42.7-6.6,76.4-28.2,103-61.6c16.7-20.9,28.8-44.6,40.8-68.4c6.5-13,11.4-26.4,13.2-41
	c2.2-17.8,2.9-35.7,4.2-53.6c1.5-21-1.8-41-9.9-60.3c-12.3-29.2-33.1-51.5-58.2-70.1c-42.3-31.4-90.8-48.3-141.5-60
	c-19.3-4.4-39-6.1-58.5-8.9c-16.4-2.4-32.7-2.4-48.9,1.5c-35.9,8.6-63.4,29.5-85.5,58.3c-22.3,29.2-36.3,62.5-45.9,97.6
	c-10.5,38.3-18.5,77-22.2,116.6c-2.2,23.3-2.2,46.4,1.6,69.5c7.3,44.1,30.3,78.5,67.3,102.8c63.2,41.6,130.8,72.6,207.3,79.9
	c19.7,1.9,39.4,2.3,59-1.8c29.7-6.2,57.2-18.1,83.3-33.4c38.8-22.7,73.5-50.3,101.4-85.9c23.2-29.7,42-62.2,59.5-95.4
	c13.1-24.8,19.1-51.1,19.6-78.9c0.5-28.6-3.6-56.6-10.4-84.2c-8.6-35.2-25-66.7-45.8-96c-10.8-15.2-22-30.2-36.7-41.9
	C469.6,109,412.5,79.2,351.4,57.2c-45.6-16.4-92.8-27.3-139.8-38.9c-14.7-3.6-29.6,0.3-33.4,18.9c-2.5-1.2-2.4-3.7-2.8-5.9
	C171.6,11,185.8-3.4,206,0.7c32.9,6.7,64.9,16.7,97.4,25C367,42,426.4,68.2,482.4,102.1c22.9,13.9,46.1,27.8,64.6,47.4
	c43.2,45.9,72.5,99.3,83,162.2c3.5,21,5.9,42.1,5.6,63.4c-0.4,31.8-8.3,61.5-23.6,89.6c-19.8,36.3-40.4,71.9-67,103.7
	c-29.2,34.8-64.7,62.1-103.9,84.5c-26.7,15.2-54.7,27.2-84.9,33.5c-6.6,1.4-13.4,1.3-19.8,3.5c-11,0-22,0-32.9,0c-0.6-1.5-2-0.9-3-1
	c-17.4-1.3-34.7-3.7-51.7-7.6c-62.5-14.3-119.5-41.3-172.6-76.4C35.1,577.7,9.6,540,2.6,490.6c-0.8-5.5-0.4-11.2-2.6-16.4
	C0,459.6,0,444.9,0,430.3z"/>
<path class="st1" d="M178.1,37.2c3.8-18.6,18.7-22.5,33.4-18.9c47,11.6,94.2,22.5,139.8,38.9c61.2,22,118.3,51.8,169.4,92.4
	c14.7,11.7,25.9,26.7,36.7,41.9c20.9,29.3,37.2,60.9,45.8,96c6.8,27.7,10.9,55.7,10.4,84.2c-0.5,27.8-6.5,54.1-19.6,78.9
	c-17.6,33.3-36.3,65.7-59.5,95.4c-27.8,35.6-62.6,63.2-101.4,85.9c-26.1,15.3-53.5,27.2-83.3,33.4c-19.6,4.1-39.2,3.7-59,1.8
	c-76.6-7.3-144.1-38.3-207.3-79.9c-37-24.3-60-58.7-67.3-102.8c-3.8-23.1-3.8-46.2-1.6-69.5c3.7-39.6,11.8-78.4,22.2-116.6
	c9.6-35.2,23.6-68.4,45.9-97.6c22-28.8,49.6-49.7,85.5-58.3c16.2-3.9,32.5-3.9,48.9-1.5c19.5,2.9,39.2,4.5,58.5,8.9
	c50.7,11.7,99.2,28.6,141.5,60c25.1,18.6,45.8,40.9,58.2,70.1c8.1,19.3,11.4,39.3,9.9,60.3c-1.3,17.9-1.9,35.8-4.2,53.6
	c-1.8,14.5-6.6,28-13.2,41c-12,23.8-24.1,47.4-40.8,68.4c-26.7,33.4-60.4,55-103,61.6c-18.5,2.9-37.1,2.3-55.6,0.2
	c-20.9-2.4-41.7-5.5-61.9-12c-20.6-6.5-39.3-16.1-54.2-32.2C137,504,129,483.6,124,461.9c-5.6-24.2-8.1-48.8-7.9-73.6
	c0.2-24.8,3.5-49.3,13.1-72.5c14.6-35.3,40.5-58.6,75.8-72.7c63.2-25.1,133.4,1.4,169.2,51.5c22.4,31.4,22.5,65.4,8.4,100
	c-14.5,35.4-41.4,58.7-75.3,74.7c-12.6,6-25.5,11.5-39.7,12c-9.7,0.3-17.7-2.4-21.3-12.7c-0.7-2-2.3-3.6-3.5-5.4
	c-2.3-10.1,2-17.7,9.3-24.2c8.6-7.8,18.8-13,29.3-17.6c19-8.3,36.1-19.1,48.1-36.5c5.8-8.4,9.8-17.6,11.3-27.8
	c0.9-6.7-1-12.8-3.1-18.9c-9.8-28-30.4-43.4-58.6-49.4c-16.2-3.5-32.6-4.3-48.9-0.6c-24.5,5.6-39.2,22.2-48.4,44.6
	c-6.4,15.6-9.5,32.1-10.5,48.8c-1.3,22.1-1.8,44.2,4.5,65.8c7.8,26.6,22.1,48.2,48.7,59.3c13.2,5.5,27.1,6.8,41.4,6
	c19.1-1.1,38.1-2.6,56.8-6.3c20.6-4.1,40-10.8,55.6-25.6c6.2-5.9,11.7-12.4,15.6-19.9c12.4-23.4,24-47.2,32.1-72.5
	c13.6-42.3,4.5-80.3-22.5-114.9c-29-37.2-67.8-58.6-112.5-70.5c-34.9-9.3-70.5-12.6-106.6-10.7c-16.7,0.9-29.5,10.2-41,21.4
	c-18.7,18.3-31.2,40.7-41.5,64.4c-17.5,40.4-29.6,82.6-35.9,126.2c-3.8,26.5-4,53,3,79.1c9.1,33.6,30.2,57.7,60,74.8
	c19,10.9,39.6,18.4,59.8,26.5c24.3,9.7,48.4,19.7,73.8,26c37.8,9.4,75.1,10,111.7-5.4c20.4-8.6,38.2-21.2,54.5-36
	c23.8-21.5,47.9-42.6,69.9-66c26-27.6,44.6-59.6,56.1-95.7c5.7-17.8,5.4-36.4,3.6-54.8c-3.9-41.6-15.9-80.8-35.9-117.5
	c-13.7-25-30.1-48.2-54.6-63.6c-42.7-26.9-87.5-49.7-136.3-63.7c-27.6-8-54.9-17.1-82.5-25.4c-13.1-3.9-26.9-5.4-39.8-10.4
	c-8.1-3.1-16-6.5-22.7-12.1c-5.5-4.6-8.9-10.2-8.3-17.7C178.7,40.5,178.3,38.8,178.1,37.2z"/>
</svg>
