<?xml version="1.0" encoding="utf-8"?>
<!-- Generator: Adobe Illustrator 24.0.2, SVG Export Plug-In . SVG Version: 6.00 Build 0)  -->
<svg version="1.1" id="Layer_1" xmlns="http://www.w3.org/2000/svg" xmlns:xlink="http://www.w3.org/1999/xlink" x="0px" y="0px"
	 viewBox="0 0 5669.3 3968.5" style="enable-background:new 0 0 5669.3 3968.5;" xml:space="preserve">
<style type="text/css">
	.st0{fill:none;}
	.st1{fill:#FFFFFF;}
	.st2{fill:url(#SVGID_1_);}
</style>
<pattern  width="875.8" height="875.8" patternUnits="userSpaceOnUse" id="Nouvelle_nuance_de_motif_12" viewBox="0 -875.8 875.8 875.8" style="overflow:visible;">
	<g>
		<rect y="-875.8" class="st0" width="875.8" height="875.8"/>
		<path class="st1" d="M713.8-321.3C713.8-321.3,713.8-321.3,713.8-321.3C713.7-321.2,713.7-321.2,713.8-321.3
			C713.7-321.2,713.7-321.2,713.8-321.3C713.7-321.2,713.7-321.2,713.8-321.3z"/>
		<path class="st1" d="M713.7-321c0,0,0-0.1,0-0.2c0,0,0,0-0.1,0.1C712.9-317.4,713.2-318.6,713.7-321z"/>
		<path d="M851.2-415.7c-10.4,0-20.8,0-31.3,0c-1.5,0-3,0-4.4,0c-1.2,1.8-2.3,3.6-3.5,5.4c-7.2,10.5-17.2,18.2-25,28.3
			c-3.8,4.8-7.6,10.7-12.4,14.5c-1.2,0.9-2.4,1.9-3.4,3c-0.1,0.1-0.2,0.2-0.3,0.3c0,0.1-0.1,0.1-0.1,0.2c-0.6,1-1.2,2.1-1.7,3.2
			c-1.8,5.2-3.1,10.6-4.7,15.8c-1.3,4.2-2.7,8.5-4.7,12.5c-0.3,0.6-1.3,3.1-1.2,2.6c-0.1,0.4-0.3,0.7-0.4,1.1
			c-1.3,3.4-2.5,6.8-3.6,10.2c-0.4,1.2-1.6,7-1.2,0.9c-0.2,2.1-0.5,4.2-0.9,6.3c-1.5,5-3.7,9.5-6.6,13.6c0,0,0,0,0,0
			c-0.8,7.7-1.4,15.5-5.8,22.2c-2.7,4.1-6.1,7.5-10.4,9.8c-5.7,2.4-6.4,2.7-2.1,0.9c-1.6,0.7-3.2,1.3-4.8,2
			c-1.1,0.4-2.3,0.8-3.5,1.1c-5.7,1.3-11.9,1.5-17.4,3.6c7.7-2.9-5.2,1.6-7.2,2.3c-0.4,0.1-0.9,0.3-1.3,0.5
			c-0.4,1.2-0.7,2.4-1.2,3.5c-2.6,6.3-5.1,12.9-8.7,18.8c-7.8,12.9-18.3,21.3-32,26.6c0,0.6,0,1.2,0,1.8c0,3,0,6.1,0,9.1
			c0,10.2,0.6,19.7-4.5,29c-3.8,6.9-9,13.2-14.5,18.9c-3.8,4-7.5,8.1-12,11.2c-0.2,0.1-0.3,0.2-0.4,0.3c-1,0.8-1.9,1.7-2.9,2.5
			c-4.5,4.1-8.8,8.4-13.6,12.2c-1.8,1.4-3.5,2.7-5.3,4c7.2,2.7,14.6,5.6,21.1,9.7c0.9,0.6,5.3,3.1,0.9,1.4c1.9,0.7,4.7,1.7,6.4,3
			c3,2.2,6.1,4.4,8.5,7.3c2.7,3.3,5.2,6.8,7.8,10.2c0.1,0.1,0.2,0.3,0.4,0.4c0.6,0.7,1.3,1.4,2,2.1c1.2,1,3.5,2.8,4.2,3.6
			c1,1,2,2.1,2.9,3.2c2.5,2.9,5,6,7.1,9.2c13,19.3,14.5,44.2,13.9,67.3h202.2v-415.7C867.6-415.7,859.4-415.7,851.2-415.7z"/>
		<path class="st1" d="M361.2-502.7C359.8-502.9,358.4-502.8,361.2-502.7L361.2-502.7z"/>
		<path class="st1" d="M412.6-532.4C410.3-530.7,411.6-531.5,412.6-532.4L412.6-532.4z"/>
		<path class="st1" d="M254.7-663.6C254.9-661.6,254.8-662.5,254.7-663.6L254.7-663.6z"/>
		<path class="st1" d="M713.7-321.1C713.7-321.2,713.7-321.2,713.7-321.1c0.1-0.2,0.1-0.4,0.2-0.7c0,0,0,0,0,0
			C713.7-321.6,713.7-321.4,713.7-321.1z"/>
		<path d="M239.8-859.8c-0.5,6.7-1.2,13.5-3.6,19.8c-1.9,4.9-4,9.5-7.7,13.4c0,0.1,0,0.1,0,0.2c0,0.3,0,0.5-0.1,0.8
			c0,1.2-0.1,2.5-0.1,3.7c0,0.7,0.1,1.5,0.2,1.9c0.3,1.4,0.5,2.7,0.8,4.1c1.3,6.6,2.7,13.1,4,19.7c2.6,13.6,5.2,27.4,5.6,41.3
			c1.5,1.2,2.9,2.6,4.1,4.1c0.8,1,1.6,2,2.5,3c0.1,0.1,0.2,0.2,0.3,0.3c0.1,0.1,0.3,0.1,0.5,0.2c1.3,0.7,2.6,1.4,3.9,2.2
			c4.5,3.6,5.4,4.2,2.5,1.8c0.4,0.2,0.8,0.5,1.2,0.7c5.5,3.7,11,8,15.3,13.2c18.4,22.3,25.3,50,26.4,78.4
			c0.6,15.9-0.1,31.9,0.7,47.9c0.2,3.5,0.4,6.9,0.7,10.4c0-0.4,0.4,2.2,0.6,2.9c0.4,1.4,0.7,2.9,1.2,4.3c0.5,1.4,0.9,2.9,1.4,4.3
			c0.2,0.5,0.9,2.2,1.2,2.7c1.1,2.2,2.2,4.4,3.5,6.4c1.1,1.8,2.2,3.5,3.4,5.2c0.2,0.2,0.3,0.4,0.4,0.6c0.1,0.1,0.1,0.1,0.2,0.2
			c1.9,2.2,3.9,4.4,6.1,6.3c0.2,0.2,0.4,0.3,0.5,0.5c1.2,0.8,2.5,1.6,3.7,2.4c3.1,1.9,6.3,3.6,9.5,5.3c3.7,1.9,7.5,3.7,11.1,5.8
			c0.8,0.5,5.9,2.7,1.4,1.4c1.3,0.4,2.6,0.8,4,1.1c0.6,0.1,1.2,0.2,1.7,0.4c0.7,0.1,1.5,0.1,1.9,0.2c3,0.2,6,0.2,9,0.2
			c7.2,0,13.9,1,20.7,3.5c2.5,0.9,5,1.8,7.5,2.4c0.2,0,0.3,0.1,0.5,0.1c0.1,0,0.1,0,0.2,0c2.9,0.1,5.7,0.4,8.4,1.2
			c3.6,1.1,7.3,2.2,11.1,2.9c0.2,0,0.4,0.1,0.5,0.1c0.2,0,0.5,0,0.8,0c1,0,1.9,0.1,2.9,0.1c0.7-0.1,2.1-0.4,2.7-0.5c0,0,0.1,0,0.1,0
			c0.3-0.5,0.7-1.1,0.9-1.7c0.1-0.1,0.1-0.3,0.2-0.5c0.1-0.4,0.3-0.8,0.4-1.1c1.3-4.1,2.2-8.3,3-12.5c2-10.3,3.8-20,8-29.6
			c5.5-12.7,16.7-18.6,27.6-25.9c0.4-0.3,0.7-0.5,0.9-0.6c0.3-0.3,0.7-0.6,1-0.9c2.4-2.2,3.7-2.7,5.9-4.2c0.6-0.4,2-1.5,2.1-1.5
			c0.4-0.4,0.9-0.7,1.3-1.1c2.3-2,4.5-4.1,6.7-6.2c1-1,2.1-2,3.1-3c0.1-0.1,0.1-0.1,0.2-0.2c2.3-4.2,4-8.6,6.5-12.7
			c-1.1-2.4-1.7-5.1-1.6-7.9c0.1-24,5.8-48.4,28.4-60.9c2.4-1.3,4.6-2.2,7.2-3.3c-4.4,1.8,0.5-0.4,1.1-0.8c2.3-1.3,4.5-2.6,6.7-4
			c4.5-2.9,8.9-6.1,13.8-8.3c7.4-3.3,14.4-5.7,22.7-5.7c4.1,0,8.2,0,12.2,0c0.9-0.8,1.8-1.6,2.7-2.4c2.7-2.5,5.3-5.3,8-7.8
			c2.3-2.2,4.9-4.1,7.1-6.4c0.5-0.5,1.5-1.8,1.7-2c0.3-0.5,0.6-1,0.8-1.6c-2.5,5.6,1.6-3.6,2.8-5.2c1.5-2,3.1-4.2,4.9-6.1
			c1.8-1.9,3.7-3.6,5.7-5.3c2-1.8,4-3.6,5.8-5.6c0.2-0.3,0.4-0.5,0.6-0.6c0.2-0.3,0.3-0.6,0.5-0.8c1-5.5,2.9-10.6,5.2-15.7
			c0.1-4.8,0.4-9.9,1.9-14.3c1.1-3,2.2-6.5,4.1-9.2c1.2-1.6,2.3-3.2,3.5-4.8c0.1-0.1,0.2-0.3,0.3-0.4c1.9-2.6,3.9-5.2,6-7.7
			c0.6-0.7,1.2-1.3,1.7-2c0.4-0.7,0.9-1.4,1.3-2.1c0.3-0.8,0.9-2.2,1.8-4.2c-1.6,3.5-0.2-0.2,0.1-1.4c0.7-14.7,0.7-29.6,0-44.5
			H239.6C239.9-870.5,240.2-865.2,239.8-859.8z"/>
		<path d="M854.5-634.7c-0.4,0.1-0.8,0.2-1.1,0.3c0,0,0,0,0,0c-0.2,0.1-0.4,0.2-0.7,0.4c-2.8,1.5-5.5,3.2-8.2,4.7
			c-12.2,6.9-27.3,12-41.4,12.6c-5.3,0.2-10.7,0-16,0.5c-0.8,0.1-2,0.3-2.4,0.4c-1.7,0.3-3.4,0.7-5,1.1c-4.8,1.2-9.5,1.1-14.4,1.2
			c-2.4,0.1-4.8,0.1-7.2,0.4c-0.2,0-0.5,0-0.7,0.1c-0.3,0.1-0.7,0.2-1.2,0.3c-1.4,0.3-2.8,0.6-4.2,1c-0.8,0.4-2.4,1.1-2.7,1.3
			c-5.6,2.9-10.7,6.3-15.9,9.7c-6.4,4.3-12.7,8.2-20,11c-0.4,0.2-0.8,0.3-1,0.4c-1.3,0.6-2.6,1.3-3.9,2c-1.9,1.1-3.8,2.2-5.6,3.5
			c-0.5,0.4-2.6,2.2-3.1,2.6c-1,1-2.1,1.9-3,3c-1,1-1.9,2.1-2.9,3.1c-0.3,0.4-1.3,1.6-1.7,2.1c-3.5,5-6.5,10.2-10.7,14.7
			c-4.1,4.4-8.8,8-13,12.3c-0.6,0.7-1.3,1.4-1.9,2.1c-0.5,0.6-1.1,1.5-1.4,1.9c-1.5,2.5-3.1,5-4.4,7.6c-3.2,6.2-5.7,12.7-9.1,18.7
			c-3.3,5.9-7.4,13.5-12.5,18c-6.5,5.8-13.7,9.2-21.8,12c-0.1,0.1-0.3,0.1-0.4,0.2c-0.6,0.5-1.2,1.1-1.4,1.2
			c-2.6,2.6-5.1,5.1-7.7,7.7c-5.3,5.3-10.6,7.6-17.9,8.5c-0.4,0.1-0.8,0.1-1.3,0.1c-2.6,1.5-5.4,2.7-8.6,3.6c-1.5,0.4-3,0.8-4.5,1.3
			c-1,0.4-1.6,0.5-1.6,0.5c-1.1,0.5-2.2,0.9-3.3,1.4c-0.7,0.2-2,0.7-2.9,1c-0.1,0.1-0.1,0.2-0.2,0.3c-0.2,0.4-0.6,1.2-0.8,1.7
			c-0.1,0.4-0.3,0.8-0.4,1.2c-0.8,2.5-1.4,5.1-1.9,7.7c-0.2,0.9-0.4,1.8-0.6,2.7c0.3-2.8,0.3-3,0-0.6c-0.2,1.7-0.4,3.3-0.6,5
			c-0.4,3.3-0.7,6.7-1.1,10c-0.9,7.8-1.8,15.7-3.4,23.4c-1.7,8.3-4.3,16.1-7.7,23.8c-3.2,7.2-7.3,15.1-13.5,20
			c-5,4-9.7,6.5-15.7,8.6c-0.7,0.2-1.3,0.4-2,0.7c-0.3,0.4-0.5,0.6-0.7,0.8c-1.2,1.6-2.5,3.5-3.9,4.9c-1.7,1.8-3.6,3.1-5.6,4.6
			c-0.6,0.4-2.9,2-2,1.2c-3.3,2.9-6.4,6.1-9.2,9.4c2.8,2.1,5.3,4.7,7.5,7.7c4.1,5.7,6.4,12.6,8.9,19.1c0.3,0.7,0.6,1.4,0.8,2.1
			c0.3,0.6,0.9,2,1.2,2.5c1.3,2.6,2.8,5,4.1,7.6c7,14.2,13.9,29.9,13.3,46.2c-0.3,8.3-3.2,14.4-5.5,22c-0.4,1.4-0.7,5.4-0.5,0.4
			c-0.1,1.6-0.3,3.2-0.4,4.9c-0.2,3.4-0.3,6.7-0.1,10.1c0.1,2.3,0.3,4.6,0.5,6.8c0,0.2,0.1,0.5,0.1,0.6c0,0.2,0.1,0.5,0.2,0.9
			c0.6,3.4,1.2,6.9,2,10.3c1.5,6.8,3.4,13.5,5.3,20.2c3.5,12,6.4,24.2,9.7,36.3c0.1,0.2,0.1,0.5,0.2,0.7c6.2-3.4,13-5.3,19.6-7.8
			c0.3-0.1,0.6-0.2,0.8-0.3c0.2-0.1,0.5-0.3,0.8-0.4c1.5-0.9,3-1.7,4.5-2.6c1.7-1,3.3-2,4.9-3.1c0.4-0.4,2-1.7,2.4-2
			c1.2-1,2.3-2,3.4-3.1c2.2-2,4.3-4.1,6.5-6.1c2.8-2.5,5.7-4.8,8.6-7.1c0.1-0.1,0.4-0.6,1.4-1.6c0.9-0.9,1.8-1.8,2.7-2.7
			c2.5-2.6,5.1-5.3,7.4-8.1c0.2-0.2,0.3-0.4,0.5-0.6c0.1-0.2,0.3-0.5,0.5-0.8c0.5-0.7,1-1.5,1.4-2.3c0-1.8,0-3.5,0-5.3
			c0-2.9,0-5.8,0-8.7c0-12.6,0.5-26.9,10.7-36c5.5-5,11-6.8,17.5-9.5c-2.1,0.8,1.2-0.7,2-1.1c0.5-0.3,1.1-0.7,1.6-1
			c0.3-0.4,2.9-2.7,3.5-3.4c0.1-0.1,0.1-0.1,0.2-0.2c0.7-1.1,1.4-2.1,2.1-3.2c1.4-2.4,2.7-4.8,3.8-7.4c0.2-0.3,0.5-1.2,0.8-1.9
			c0.3-0.9,0.7-1.8,1-2.8c1-3.2,2.2-6.4,3.7-9.4c5.9-11.6,17.4-17.8,29.5-20.9c-4,1.9-3.2,1.7,2.4-0.8c0.4-0.1,0.7-0.3,1.1-0.4
			c1.2-0.4,2.4-0.7,3.7-1c2.8-0.6,5.6-1,8.4-1.5c0.9-0.2,1.9-0.3,2.8-0.5c0.3-2.9,0.6-5.7,1.2-8.5c1-5.1,3.3-8.8,6.4-12.8
			c0,0,0,0,0,0c-2.5,3.2-0.6,0.5,0.1-0.7c0-0.1,0-0.1,0-0.2c0,0.1,0,0.1,0,0.2c0.1-0.1,0.1-0.2,0.1-0.3c0,0,0,0,0-0.1
			c0.5-2.1,1.1-4.5,1.3-5.4c0.6-1.8,1.2-3.5,1.8-5.3c1.1-3.3,2.3-6.5,3.6-9.7c1.1-2.5,2.1-5.1,3.2-7.6c0.1-0.1,0.1-0.3,0.2-0.4
			c0-0.1,0.1-0.3,0.2-0.5c1-3,2-6.1,2.8-9.2c2-7.3,4.1-14.8,7.8-21.6c3.6-6.7,9-11.2,14-16.7c4.9-5.3,9.1-11.1,13.6-16.7
			c2-2.4,4-4.8,6.2-7c2.3-2.2,5.2-4.1,7.3-6.5c0.3-0.4,0.6-0.7,0.7-0.9c0.2-0.3,0.5-0.6,0.7-1c0.8-1.2,1.6-2.4,2.3-3.6
			c1.4-2.2,2.8-4.4,4.4-6.5c5-6.6,11-12.8,19.6-14.4c12-2.2,25.2-0.8,37.5-0.8c11.5,0,23,0,34.6,0v-178.9c-1.2,0-2.4,0-3.6,0
			C866.3-634.7,860.4-634.9,854.5-634.7z"/>
		<path class="st1" d="M414.6-535.6C415-536.7,415.4-537.6,414.6-535.6L414.6-535.6z"/>
		<path d="M678.3-832.8c-0.2,4.5-0.5,9.2-1.8,13.5c-0.8,2.8-1.9,5.4-3.1,8.1c2.3-5-1.1,2.9-1.9,4.6c-2,3.9-4.7,7.4-7.6,10.8
			c-0.8,0.9-1.6,1.8-2.4,2.7c-1.2,2-2.1,3.6-4,5.6c0,0.1,0,0.1-0.1,0.2c-0.3,5.9-0.1,11.2-2.9,16.8c-0.6,1.2-1.1,2.3-1.7,3.5
			c-0.1,0.3-1.1,2.8-1.2,3.2c-0.1,0.5-0.2,0.9-0.3,1.1c0,0,0,0.1,0,0.1c-0.2,4.3-1.4,7.9-3.5,11.6c-2.1,3.7-4.7,7.2-7.5,10.4
			c-3.8,4.3-8.5,7.6-12.4,11.9c-0.6,1.6-1.4,3.2-2.1,4.5c-2,3.4-4.4,6.7-7.2,9.5c-4.7,4.7-9.8,9.2-14.6,13.8
			c-7.1,6.7-16.2,15.4-26.6,15.4c-4.2,0-8.4,0-12.6,0c-1.8,0-3.6,0-5.4,0c-0.4,0-0.7,0-0.9,0c-0.8,0.2-1.6,0.4-2.4,0.6
			c-0.6,0.3-1.4,0.6-1.8,0.8c-2.6,1.4-5,2.9-7.5,4.5c-3,2-6,4-9.1,5.7c-1.4,0.8-2.8,1.6-4.3,2.2c-1.6,0.7-7.4,3.8-5.8,2.8
			c-0.7,0.4-1.3,0.8-2,1.2c0,0,0,0-0.1,0c-0.8,0.7-1.6,1.5-2.3,2.3c-0.6,0.9-1.1,1.8-1.6,2.8c-0.1,0.2-0.1,0.3-0.1,0.4
			c-0.3,1-0.6,2-0.9,3.1c3.2-0.4,6.4-0.7,9.5-1c7.7-0.7,15.4-1,23.2-0.9c14.8,0.2,29.8,0.5,44.5,1.4c13.4,0.8,28,4.2,39,12.2
			c6.8,4.9,12.8,10.2,17.2,17.4c3.7,5.9,6,12.9,8.3,19.5c0.9,2.5,1.6,5,2.3,7.6c2.6-3.1,5.4-6.1,8.6-8.7c5.8-4.8,11.8-9.4,18.7-12.5
			c2.5-1.1,5-2.2,7.6-3.2c0.5-0.2,2.1-1,2.6-1.3c2-1.1,3.9-2.3,5.8-3.5c12.1-7.9,24.5-17.3,39.1-19.7c5.3-0.9,10.7-1.6,16.1-1.8
			c1.8-0.1,3.6-0.1,5.4-0.1c0.5,0,0.9,0,1.2,0c0.2,0,0.4-0.1,0.7-0.2c6.8-1.5,13.8-2.5,20.8-2.8c3.3-0.1,6.5,0,9.8-0.1
			c1,0,1.9-0.1,2.9-0.1c0.7-0.1,2-0.4,2.5-0.5c4.6-1.1,9.2-2.6,13.7-4.4c-0.8,0.2,3.2-1.7,3.9-2.1c1.4-0.8,2.7-1.6,4.1-2.4
			c3.8-2.2,7.6-4,11.6-5.7c6.3-2.6,12.9-2.7,19.6-2.7c5.4,0,10.8,0,16.2,0v-201.1H677.9c0.2,6.2,0.3,12.4,0.4,18.6
			C678.4-849.1,678.8-840.9,678.3-832.8z"/>
		<path class="st1" d="M216.1-191C216.6-190,217-189.3,216.1-191L216.1-191z"/>
		<path class="st1" d="M215.7-191.7C215.6-191.8,215.6-191.8,215.7-191.7c-0.1-0.1-0.1-0.1-0.2-0.1c0,0,0,0,0,0
			C215.5-191.8,215.6-191.8,215.7-191.7z"/>
		<path class="st1" d="M215.5-191.9C215.5-191.9,215.5-191.9,215.5-191.9c-0.3-0.2-0.7-0.4-1.1-0.7
			C214.7-192.4,215.1-192.1,215.5-191.9z"/>
		<path class="st1" d="M487.6-378.8C488.5-379.5,488.9-380.1,487.6-378.8L487.6-378.8z"/>
		<path class="st1" d="M606.6-68.9C608.7-68.1,608.7-68.1,606.6-68.9C606.6-68.9,606.6-68.9,606.6-68.9z"/>
		<path class="st1" d="M88.8-440.6C89.7-440.6,90.2-440.6,88.8-440.6L88.8-440.6z"/>
		<path class="st1" d="M566.3-500.8c0.8-0.7,1.7-1.3,2.5-2C567.8-502.2,567-501.6,566.3-500.8z"/>
		<path class="st1" d="M511.2-394.9c-0.5,0.5-0.9,1-1.1,1.7C510.5-393.8,510.9-394.3,511.2-394.9z"/>
		<path class="st1" d="M230.4-110.3C230.4-110.3,230.4-110.4,230.4-110.3C229.4-106.8,230.4-107.2,230.4-110.3z"/>
		<path class="st1" d="M414.1-533.3C415.2-533.7,415.8-534.1,414.1-533.3L414.1-533.3z"/>
		<path class="st1" d="M649.2-205.7c-0.2,0.1-0.4,0.3-0.6,0.4C648.9-205.4,649.1-205.5,649.2-205.7
			C649.3-205.7,649.3-205.7,649.2-205.7z"/>
		<path class="st1" d="M651.5-208.1C651.5-208.1,651.5-208.1,651.5-208.1C652.2-208.9,652-208.7,651.5-208.1z"/>
		<path class="st1" d="M693.9-256.5C695.2-258.1,694.6-257.5,693.9-256.5L693.9-256.5z"/>
		<path class="st1" d="M710.4-300.9C710.4-300.9,710.4-300.9,710.4-300.9c0.2,0,0.4-0.1,0.6-0.2c-0.4,0.2-0.7,0.3-1,0.4
			c0,0-0.1,0-0.1,0.1c0.8-0.3,1.8-0.8,3.2-1.3C712.2-301.6,711.3-301.2,710.4-300.9z"/>
		<path class="st1" d="M692.8-255.2c-0.1,0.1-0.1,0.2-0.2,0.3C692.6-255,692.7-255.1,692.8-255.2
			C692.8-255.2,692.8-255.2,692.8-255.2z"/>
		<path class="st1" d="M854.7-634.8C857.1-634.9,856.1-634.9,854.7-634.8L854.7-634.8z"/>
		<path class="st1" d="M157-724.4c0.2-0.1,0.5-0.2,0.7-0.3c0,0,0,0-0.1,0C157.4-724.6,157.2-724.5,157-724.4z"/>
		<path class="st1" d="M90.1-661.9c-0.2,0.1-0.3,0.1-0.5,0.2C89.4-661.4,89.5-661.4,90.1-661.9z"/>
		<path class="st1" d="M629.1-731.8c-0.3,0.7-0.6,1.6-0.9,2.5c0.1-0.1,0.2-0.2,0.3-0.4C628.7-730.4,628.9-731.1,629.1-731.8z"/>
		<path class="st1" d="M522.6-664.5c-0.1,0.2-0.4,0.8-0.6,1.3C522.3-663.9,522.5-664.3,522.6-664.5
			C522.6-664.5,522.6-664.5,522.6-664.5z"/>
		<path class="st1" d="M661.6-793.2C660.6-792,659-789.2,661.6-793.2L661.6-793.2z"/>
		<path class="st1" d="M20.4-634.7c0.7,0.1,1.3,0.2,1.7,0.2c0,0,0,0,0.1,0C21.6-634.5,21-634.6,20.4-634.7z"/>
		<path class="st1" d="M22.2-634.4c0.2,0,0.4,0.1,0.6,0.1C24.4-634.1,23.3-634.3,22.2-634.4z"/>
		<path d="M47.5-456.2c12.8,0.5,22.8,7.2,33.8,12.8c1.1,0.5,7,3,1.7,1c1.3,0.5,2.6,1,4,1.3c0.4,0.1,0.9,0.2,1.4,0.2
			c1.3,0,2.6,0,3.8,0.1c8.4,0.4,16.8,1.5,25.1,3c15.2,2.8,29.8,6.1,43.5,13.5c12.1,6.5,23.2,15.3,32.6,25.2c2.5,2.6,4.8,5.2,7.1,7.9
			c1.6,1.9,3,3.9,4.5,5.8c-1.8-2.5,1,1.1,1.5,1.6c1.8,1.8,3.7,3.6,5.7,5.3c0.5,0.3,2.2,1.6,2.5,1.8c1.3,0.9,2.7,1.8,4,2.7
			c7.1,4.7,13.4,10.3,19.6,16.1c2.4,2.3,4.8,4.6,7.3,6.7c0.7,0.6,1.4,1.2,2.2,1.9c0.4,0.2,2.2,1.5,2.6,1.8c2.2,1.4,4.6,2.9,6.9,4.1
			c0.4,0.1,0.8,0.3,1.2,0.4c0.6,0,1.2,0,1.8,0c0.8-0.1,1.9-0.3,2.4-0.4c4.7-1.1,9.2-1.4,14-1.6c2-0.1,4-0.3,6-0.5
			c0.9-0.1,2.8-0.4,3.1-0.4c3.6-0.7,7.2-1.4,10.8-2.4c8.3-2.3,15.8-5.9,24.6-5.5c5,0.3,10.4,0.5,15.1,2.3c2.2,0.8,4.3,1.7,6.4,2.6
			c-0.4-0.3-0.8-0.6-1.2-0.9c1.5,0.3,3,0.5,4.6,0.8c0.6,0.1,3.6,0.4,3.8,0.5c2,0.2,3.9,0.4,5.9,0.6c3.9,0.4,7.8,0.8,11.7,1.3
			c3.7,0.5,7.5,0.9,11.2,1.5c0.7,0.1,6.7,0.3,2.3,0.3c3.5,0,7.1,0,10.6,0c7.1,0,14.2,0,21.3,0c14,0,27.9,0,41.9,0
			c7.9-8.8,14.4-19.1,23.4-26.9c2.4-2.1,5.3-4.9,8-6.4c0.3-0.2,0.6-0.4,0.9-0.6c0.5-0.6,1-1.2,0.8-0.9c0.9-1.2,1.9-2.5,2.9-3.7
			c3.9-4.6,8-7.2,13.6-9.5c1.4-0.6,2.7-1.1,4.2-1.5c0.7-0.2,2.8-1.1,2.8-1.1c0,0,0,0,0,0c0.5-0.8,1-1.6,1.5-2.5
			c0.8-1.5,1.7-3,2.4-4.5c0.2-0.5,0.4-0.9,0.5-1.1c0-0.1,0.1-0.2,0.1-0.3c2.3-6.2,4-12.6,5.1-19.2c0.3-1.6,0.5-3.2,0.8-4.8
			c0.1-0.8,0.3-2.6,0.4-3c0.4-3.3,0.7-6.7,1.1-10c0.8-7.4,1.5-14.9,3.3-22.1c3.1-12.9,9.7-27.3,22.5-33.1c2.7-1.2,5.4-2.6,8.3-3.4
			c1.9-0.6,1.8-0.4-0.5,0.6c1.6-0.7,3.2-1.3,4.8-2c2.4-0.9,5-1.5,7.4-2.3c0.4-0.3,0.8-0.6,1.2-0.9c2.5-1.1,5-2.6,7.8-3.1
			c1.3-0.3,2.7-0.4,4-0.5c0,0,0,0,0.1-0.1c1.3-1.3,2.6-2.6,3.9-3.9c3.2-3.2,6.5-6.7,10.5-9c3.8-2.2,7.7-3,11.7-4.5
			c0.2-0.1,0.3-0.1,0.5-0.2c0,0,0.1,0,0.1,0c0.8-0.4,1.6-0.8,2.3-1.3c0.4-0.6,0.8-1.2,1.2-1.8c2.1-3,4-6.1,5.7-9.3
			c2.9-5.6,5.3-11.6,8.3-17.2c1.3-2.4,2.6-4.7,4.1-7.1c-0.6-1.8-0.9-3.8-0.9-5.8c0-2.9-0.1-5.9-0.3-8.8c-0.1-1.6-0.2-3.2-0.4-4.8
			c-0.8-4.8-1.9-9.5-3.3-14.2c-0.8-2.5-1.6-4.9-2.5-7.3c-0.3-0.8-1.6-3.7-2.1-4.9c-1-1.6-2.4-3.5-1.5-2.6c-0.7-0.8-1.5-1.6-2.3-2.4
			c-0.3-0.2-0.7-0.6-1.2-0.9c-0.4-0.2-0.7-0.5-1.1-0.7c-1.3-0.8-2.6-1.5-4-2.2c-0.6-0.1-4-1.4-4.8-1.7c-1.4-0.4-2.9-0.7-4.3-1
			c-0.9-0.1-3.9-0.4-4.8-0.4c-2.7,0-5.5,0-8.2-0.1c-5.4-0.1-10.8-0.4-16.2-0.6c-15.6-0.7-31.3-1.2-46.8,0.7c2.9-0.3-0.7,0.6-2.6,1.2
			c-0.9,0.4-2.5,1.2-2.8,1.3c-1.2,0.6-2.5,1.2-3.7,1.9c-0.4,0.3-0.8,0.6-1.1,0.9c0,0,0,0.1-0.1,0.1c-0.6,1.1-1.2,2.1-1.8,3.2
			c-1.1,2.3-2.1,4.6-3.2,6.8c-3.4,6.7-8.6,11.8-14.1,16.8c-4.8,4.4-9.8,9.3-15.6,12.4c-1.6,1.2-3.1,2.4-4.7,3.6
			c-1.2,0.9-2.5,1.8-3.8,2.6c-2.6,1.6-5.3,3.1-7.9,4.8c-0.3,0.2-0.6,0.4-0.8,0.5c0,0,0,0,0,0c-0.2,0.2-0.5,0.5-0.7,0.7
			c-0.5,0.7-1.1,1.7-1.5,2.4c0,0.1-0.1,0.2-0.1,0.3c-0.3,1-0.6,1.9-0.9,2.9c-0.6,2-1.1,4.1-1.5,6.2c-0.9,4.3-1.6,8.7-2.5,13
			c-1.8,9.5-4.3,19.7-10.1,27.5c-9,12.3-23.2,19.2-38.7,18.1c-5.1-0.4-10.3-1-15.2-2.2c-1.6-0.4-3.2-0.8-4.8-1.3
			c-1.1-0.3-5.8-1.1-0.8-0.7c-7.1-0.5-13.4-1.9-20-4.3c-1.5-0.5-3-1.1-4.6-1.5c-0.2-0.1-0.4-0.1-0.7-0.1c-2.8-0.1-5.6,0-8.5-0.1
			c-6.6-0.2-13.4-0.7-19.9-2.5c-8.3-2.2-15.5-7.3-23.1-11.1c-6-3-11.9-6.2-17.2-10.2c-12-9.2-21.4-21.2-27.5-35
			c-6.7-15.2-8.9-30.5-9.2-47c-0.4-16.1,0.3-32.2-0.8-48.2c-0.2-2.5-0.3-4.9-0.6-7.4c0-0.4-0.1-0.7-0.1-0.9
			c-0.5-2.6-0.9-5.1-1.5-7.6c-1.3-5.2-2.7-10.4-4.7-15.4c-0.3-0.6-0.6-1.3-0.9-1.9c-0.6-1.2-1.2-2.5-1.9-3.7
			c-1.3-2.4-2.8-4.8-4.4-7.1c-0.1-0.1-0.1-0.2-0.2-0.2c0,0,0-0.1-0.1-0.1c-0.9-1-1.8-2.1-2.8-3c-1-1-1.9-1.9-3-2.8
			c-0.1-0.1-0.3-0.2-0.4-0.3c-2.6-1.7-5.1-3.2-7.5-5.3c3.2,2.8-0.2,0.3-1.1-0.2c-3.6-2-7-4.6-9.7-7.7c-0.5-0.6-1-1.3-1.5-1.9
			c-1.5-0.4-3-0.7-4.6-0.9c1.4,0.2-3.4-0.4-3.7-0.4c-3.9-0.4-7.8-0.6-11.7-0.8c-7.7-0.3-15.5-0.2-23.2-0.2c-3.6,0-7.2,0-10.8,0
			c-1,0-2,0-2.9,0c-0.6,0.3-1.3,0.6-1.6,0.8c-1.3,0.7-2.6,1.5-3.9,2.4c-0.2,0.1-0.3,0.2-0.4,0.3c-0.1,0.1-0.2,0.2-0.4,0.4
			c-1.1,1.1-2.3,2.1-3.3,3.3c-0.3,0.4-0.6,0.7-0.8,0.9c-1,1.4-2.1,2.8-3.2,4.2c-1,1-2,2-2.9,3.1c-1.9,2.1-3.7,4.3-5.5,6.5
			c-0.5,0.6-2.6,3.3-1.6,2c-0.5,0.6-0.9,1.2-1.4,1.8c-2.5,3.2-4.9,6.5-7.5,9.7c-8.2,10.2-18,19.6-30.1,25c0.2-0.1-1,0.5-2.5,1.2
			c-1.2,3.5-2.6,6.8-5.4,9.6c-2.4,2.4-4.6,4.8-7.1,7.1c-12.1,10.8-26.1,15.4-42.3,14.1c-4.6-0.4-9.2-1-13.8-1.6
			c-0.5-0.1-1.1-0.1-1.6-0.2c-0.2,0-0.4-0.1-0.6-0.1c-0.4-0.1-0.9-0.1-1.2-0.1c-6-0.7-12.2-0.4-18.2-0.5c-0.9,0-1.8,0-2.7-0.1v179.4
			c1.4,0,2.8-0.1,4.2-0.1C18.6-456,33.1-456.7,47.5-456.2z"/>
		<path d="M22.1-674.5c3.2,0.4,6.4,0.9,9.6,1.3c0.2,0,0.5,0.1,0.8,0.1c0.9,0.1,1.9,0.2,2.8,0.3c4.1,0.4,8.2,0.7,12.3,0.4
			c0.2,0,0.3-0.1,0.5-0.1c0.1,0,0.3-0.1,0.4-0.1c0.5-0.3,1.3-0.7,2-1c0.9-0.8,3.3-2.7,3.8-3.3c0.6-0.6,1.2-1.2,1.8-1.8
			c2.7-7,6.2-13.3,13.1-17.6c2.3-1.4,4.8-2.3,7.3-3.3c0.5-0.2,1.7-0.8,2.2-0.9c1.9-1,3.8-2.1,5.5-3.3c0.1-0.1,0.2-0.2,0.3-0.2
			c0.1,0,0.1-0.1,0.2-0.1c1.1-0.9,2.1-1.9,3.1-2.9c2-2,4-4,5.8-6.2c1.2-1.4,2.4-2.9,3.6-4.4c0.6-0.8,3.6-4.7,0.4-0.4
			c2.5-3.2,5-6.5,7.5-9.7c1.7-2.2,3.5-4.5,5.3-6.7c0.9-1.1,1.8-2.2,2.8-3.2c0.6-0.7,3.7-4.3,0.7-0.4c10-13.3,25.3-26.6,42.9-26.6
			c13.7,0,27.6-0.4,41.3,0.4c-0.1-0.9-0.2-1.8-0.3-2.7c-0.1-0.9-0.3-2-0.3-2.4c-1.1-7-2.4-14-3.8-20.9c-3-14.8-6.9-29.3-4.3-44.5
			c0.7-4,2.1-8.2,4.3-11.7c1.1-1.8,2.3-3.5,3.7-5.2c0,0,0.2-0.4,1-1.3c0,0,0-0.1,0.1-0.1c0.1-0.2,0.1-0.5,0.2-0.9
			c0.3-1.2,0.6-2.3,0.8-3.5c0-0.1,0-0.2,0.1-0.3c0.1-1.1,0.2-2.3,0.2-3.4c0.2-4.9,0-9.7-0.2-14.6H0v201.1
			C7.4-674.7,14.8-675.4,22.1-674.5z"/>
		<path d="M637-14.4c-0.4-2.4-1.7-6.6-1.7-6.9c-0.4-2-1.9-5.6-2.3-7.6c-0.8-3.8-2.9-8.5-4.3-12.1c-0.3-0.7-0.7-1.3-1-2
			c-0.8-1.4-1.6-2.8-2.5-4.1c-0.1-0.1-0.1-0.2-0.2-0.2c-0.2-0.3-0.5-0.6-0.7-0.8c-0.8-0.9-5.4-5-1.1-1.9c-5.7-4.1-9.6-8.6-13.8-14.2
			c-0.6-0.8-1.2-1.6-1.8-2.4c-0.4-0.4-1.7-2.1-2.3-2.7c-0.6-0.2-1.3-0.5-2-0.9c-1.8-1.3-3.6-2.6-5.5-3.6c-1.9-1.1-3.8-2.1-5.8-3
			c-0.6-0.3-1.2-0.5-1.8-0.8c-0.2-0.1-0.5-0.2-0.9-0.4c-7.4-2.9-14.8-5.5-22-8.8c-0.2,0-0.7,0-1.7-0.1c4.8,0.7-0.8,0-1.5,0
			c-3.4-0.2-6.9-0.3-10.3-0.6c-5.2-0.5-10.6-0.9-15.6-2.6c-2.8-0.9-5.5-2-8.2-3.3c5.7,2.6-1.5-0.3-3.4-1.6
			c-5.8-3.8-10.8-9-13.6-15.4c-5.2-11.8-7.5-24-10.9-36.3c-3.8-13.7-8.3-27.3-10.9-41.2c-1.6-8.5-3-17.2-3.2-25.8
			c-0.2-7.4-0.1-15.9,2-23c1-3.2,2.4-6.2,3.4-9.4c0.3-0.8,0.5-1.6,0.8-2.3c0.1-0.8,0.2-2.2,0.2-2.8c0-0.7-0.6-5.1-0.2-2.9
			c-0.2-1.2-0.4-2.4-0.7-3.6c-0.8-3.2-1.7-6.3-2.9-9.3c-0.1-0.3-0.2-0.5-0.3-0.7c-0.3-0.7-0.6-1.3-0.9-2c-0.7-1.5-1.4-2.9-2.1-4.4
			c-1.3-2.7-2.9-5.2-4.2-7.8c-2.8-5.6-5.1-11.5-7.4-17.3c0.2,0.5-1.1-2.4-1.6-3.4c-0.7-0.1-1.6-0.2-2-0.2c-1.3-0.1-2.7-0.2-4-0.4
			c-2.8-0.3-5.1-0.7-7.2-1.3c-21.3,0-42.5,0-63.8,0c-5.3,0-10.6,0-15.9,0c-7.7,0-13.3-1.9-17.4-2.3c-5.9-0.6-11.8-1.1-17.6-1.9
			c-7.4-0.9-15-1.4-21.8-4.6c3.5,1.6-0.2,0.2-1.4-0.1c-1-0.1-2-0.1-3-0.1c-5.3,2-10.6,3.7-16.1,5c-3.8,0.9-7.7,1.6-11.6,2.2
			c-0.9,1.8-2.1,3.4-3.6,4.9c-10.3,10.2-22.4,18.8-34.7,26.5c-5.4,3.4-10.9,6.5-16.1,10.2c-0.5,0.3-3.3,2.6-2.5,1.9
			c-0.8,0.7-1.7,1.4-2.5,2.2c-0.4,0.4-0.7,0.6-0.9,0.8c0,0,0,0,0,0c-0.6,0.9-1.2,1.7-1.8,2.6c-1.8,2.7-3.5,5.5-5.1,8.3
			c-0.8,1.4-1.6,2.9-2.3,4.4c-0.3,0.5-1.6,3.8-1.3,2.9c-1.9,4.9-3.5,10-4.5,15.2c-0.1,0.6-0.3,2.5-0.4,3c-0.1,0.7-0.1,1.5-0.1,2.2
			c0,2.5-0.1,5-0.3,7.5c-0.3,4.7-0.9,9.5-0.9,14.2c0,1.8,0,3.6,0.1,5.4c0.1,0.6,0.3,1.3,0.4,1.7c0,0.2,0.1,0.3,0.2,0.5
			c0.7,0.6,1.3,0.9,0.2,0.2c0,0,0,0,0,0c1,0.7,2,1.3,3.1,1.9c0.7,0.3,1.5,0.6,1.9,0.7c1.4,0.4,2.7,0.8,4.1,1.1
			c2.8,0.7,5.5,1.2,8.3,1.8c5.8,1.3,12.1,3,17.2,6.1c22.9,13.9,27.5,47.2,19.7,71.6c-0.7,8.6-4.3,15.3-11.1,20.1
			c-0.8,1.3-1.6,2.5-2.4,3.8c-0.8,1.3-1.7,2.5-2.5,3.9c-0.2,0.4-0.4,0.8-0.6,1c-0.1,0.2-0.1,0.3-0.2,0.5c-2.8,7.2-6,14.3-9.3,21.2
			c-0.7,1.4-1.3,2.8-2,4.1c-0.2,0.5-0.8,2-1.1,2.6c-0.7,2-1.4,4-1.9,6.1c-0.1,0.4-0.2,1.1-0.2,1.7c0,1.1-0.1,2.2-0.1,3.3
			c0,3.8,0,7.6,0,11.4c0,9.5-0.1,19,0,28.4h399.3C638.1-1.3,638.1-7.8,637-14.4z"/>
		<path d="M198.9-34.1c0-8.1,0-16.3,2.4-24.1c2.1-6.8,5.1-13.3,8.2-19.7c1.4-2.9,2.8-5.8,4.1-8.7c0.2-0.4,0.3-0.8,0.4-1
			c0-0.1,0.1-0.3,0.2-0.4c0.6-1.6,1.2-3.3,1.8-4.9c2.5-7.3,7.5-13.1,11-19.8c1.1-2.1,2.7-3.8,4.5-5.2c0.4-1.2,0.9-2.5,1.5-3.8
			c-2.2,4.9-0.4,0.6-0.2-0.6c0.1-0.3,0.1-0.5,0.1-0.7c0-0.1,0-0.2,0-0.3c0.2-3.5,0.3-7,0.3-10.5c0-0.9,0-1.9,0-2.8
			c-0.1-0.5-0.2-0.9-0.2-1.2c-0.3-1.3-0.6-2.6-1-3.8c-0.2-0.6-0.8-1.9-1-2.4c-0.2-0.4-0.5-0.8-0.7-1.2c-0.1-0.1-0.2-0.1-0.3-0.2
			c-12.2-3.9-25.1-4.6-35.9-12.6c-13.3-9.8-19.2-23.5-19-40c0.1-5.6,0.7-11.2,1-16.8c0.4-6.9,0.6-13.7,1.8-20.6
			c2.6-14.2,8.5-28.5,16.5-40.6c5.4-8.2,11.3-14.5,19-20.4c5.2-4,10.7-7.4,16.2-10.8c1.6-1,3.2-2,4.8-3c-7.5-4.5-14.4-9.8-20.8-15.7
			c-2.9-2.7-5.7-5.4-8.6-8c-1.3-1.1-2.5-2.3-3.9-3.4c-0.2-0.2-0.4-0.4-0.6-0.5c-0.2-0.1-0.4-0.3-0.7-0.5
			c-6.3-4.2-12.7-8.6-18.3-13.7c-3.7-3.4-6.7-7-9.7-11c-0.1-0.1-0.2-0.3-0.3-0.4c-0.1-0.1-0.3-0.3-0.4-0.5c-1-1.2-2-2.3-3-3.4
			c-4.1-4.5-8.4-8.8-13-12.7c-0.6-0.5-4-3.1-3.4-2.7c-0.7-0.5-1.4-1-2.2-1.5c-2.5-1.7-5.1-3.3-7.7-4.7c-1.3-0.7-2.7-1.4-4.1-2.1
			c-0.6-0.3-3.3-1.4-2.8-1.3c-2.3-0.9-4.6-1.7-6.9-2.3c-7.6-2.1-15.5-3.5-23.2-4.8c-0.5-0.1-5.2-0.7-3-0.5c-1.4-0.2-2.8-0.3-4.2-0.4
			c-3.6-0.3-7.2-0.1-10.8-0.4c-9-0.8-16.6-3.2-24.6-7.3c-4.3-2.2-8.5-4.9-12.9-7c-0.7-0.3-1.8-0.7-2.5-1c-3.7,0-7.4,0-11.1,0
			c-7.5,0-14.9,0-22.4,0c-4.5,0-8.9,0-13.4,0V0h199.7C199.6-11.4,198.9-22.8,198.9-34.1z"/>
		<path class="st1" d="M677.9,0h-39.7c0-9,0.2-7.6-1.9-17.5c-0.2-0.7-1.6-5.3-1.6-5.6c-0.6-2-1.4-4.3-1.8-6.3
			c-0.8-3.8-2.8-8-4.1-11.6c-0.3-0.7-0.7-1.3-1-2c-0.8-1.4-1.6-2.8-2.5-4.1c-0.1-0.1-0.1-0.2-0.2-0.2c-0.2-0.3-0.5-0.6-0.7-0.8
			c-0.8-0.9-5.4-5-1.1-1.9c-5.7-4.1-9.6-8.6-13.8-14.2c-0.6-0.8-1.2-1.6-1.8-2.4c-0.4-0.4-1.7-2.1-2.3-2.7c-0.6-0.2-1.3-0.5-2-0.9
			c-1.8-1.3-3.6-2.6-5.5-3.6c-1.9-1.1-3.8-2.1-5.8-3c-0.6-0.3-1.2-0.5-1.8-0.8c-0.2-0.1-0.5-0.2-0.9-0.4c-7.4-2.9-14.8-5.5-22-8.8
			c-0.2,0-0.7,0-1.7-0.1c4.8,0.7-0.8,0-1.5,0c-3.4-0.2-6.9-0.3-10.3-0.6c-5.2-0.5-10.6-0.9-15.6-2.6c-2.8-0.9-5.5-2-8.2-3.3
			c5.7,2.6-1.5-0.3-3.4-1.6c-5.8-3.8-10.8-9-13.6-15.4c-5.2-11.8-7.5-24-10.9-36.3c-3.8-13.7-8.3-27.3-10.9-41.2
			c-1.6-8.5-3-17.2-3.2-25.8c-0.2-7.4-0.1-15.9,2-23c1-3.2,2.4-6.2,3.4-9.4c0.3-0.8,0.5-1.6,0.8-2.3c0.1-0.8,0.2-2.2,0.2-2.8
			c0-0.7-0.6-5.1-0.2-2.9c-0.2-1.2-0.4-2.4-0.7-3.6c-0.8-3.2-1.7-6.3-2.9-9.3c-0.1-0.3-0.2-0.5-0.3-0.7c-0.3-0.7-0.6-1.3-0.9-2
			c-0.7-1.5-1.4-2.9-2.1-4.4c-1.3-2.7-2.9-5.2-4.2-7.8c-2.8-5.6-5.1-11.5-7.4-17.3c0.2,0.5-1.1-2.4-1.6-3.4c-0.7-0.1-1.6-0.2-2-0.2
			c-1.3-0.1-2.7-0.2-4-0.4c-2.8-0.3-5.1-0.7-7.2-1.3c-21.3,0-42.5,0-63.8,0c-5.3,0-10.6,0-15.9,0c-7.7,0-13.3-1.9-17.4-2.3
			c-5.9-0.6-11.8-1.1-17.6-1.9c-7.4-0.9-15-1.4-21.8-4.6c3.5,1.6-0.2,0.2-1.4-0.1c-1-0.1-2-0.1-3-0.1c-5.3,2-10.6,3.7-16.1,5
			c-3.8,0.9-7.7,1.6-11.6,2.2c-0.9,1.8-2.1,3.4-3.6,4.9c-10.3,10.2-22.4,18.8-34.7,26.5c-5.4,3.4-10.9,6.5-16.1,10.2
			c-0.5,0.3-3.3,2.6-2.5,1.9c-0.8,0.7-1.7,1.4-2.5,2.2c-0.4,0.4-0.7,0.6-0.9,0.8c0,0,0,0,0,0c-0.6,0.9-1.2,1.7-1.8,2.6
			c-1.8,2.7-3.5,5.5-5.1,8.3c-0.8,1.4-1.6,2.9-2.3,4.4c-0.3,0.5-1.6,3.8-1.3,2.9c-1.9,4.9-3.5,10-4.5,15.2c-0.1,0.6-0.3,2.5-0.4,3
			c-0.1,0.7-0.1,1.5-0.1,2.2c0,2.5-0.1,5-0.3,7.5c-0.3,4.7-0.9,9.5-0.9,14.2c0,1.8,0,3.6,0.1,5.4c0.1,0.6,0.3,1.3,0.4,1.7
			c0,0.2,0.1,0.3,0.2,0.5c0.7,0.6,1.3,0.9,0.2,0.2c0,0,0,0,0,0c1,0.7,2,1.3,3.1,1.9c0.7,0.3,1.5,0.6,1.9,0.7
			c1.4,0.4,2.7,0.8,4.1,1.1c2.8,0.7,5.5,1.2,8.3,1.8c5.8,1.3,12.1,3,17.2,6.1c22.9,13.9,27.5,47.2,19.7,71.6
			c-0.7,8.6-4.3,15.3-11.1,20.1c-0.8,1.3-1.6,2.5-2.4,3.8c-0.8,1.3-1.7,2.5-2.5,3.9c-0.2,0.4-0.4,0.8-0.6,1
			c-0.1,0.2-0.1,0.3-0.2,0.5c-2.8,7.2-6,14.3-9.3,21.2c-0.7,1.4-1.3,2.8-2,4.1c-0.2,0.5-0.8,2-1.1,2.6c-0.7,2-1.4,4-1.9,6.1
			c-0.1,0.4-0.2,1.1-0.2,1.7c0,1.1-0.1,2.2-0.1,3.3c0,3.8,0,7.6,0,11.4c0,9.5,0.6,19,0.7,28.4h-40c-0.1-11.4-0.7-22.8-0.7-34.1
			c0-8.1,0-16.3,2.4-24.1c2.1-6.8,5.1-13.3,8.2-19.7c1.4-2.9,2.8-5.8,4.1-8.7c0.2-0.4,0.3-0.8,0.4-1c0-0.1,0.1-0.3,0.2-0.4
			c0.6-1.6,1.2-3.3,1.8-4.9c2.5-7.3,7.5-13.1,11-19.8c1.1-2.1,2.7-3.8,4.5-5.2c0.4-1.2,0.9-2.5,1.5-3.8c-2.2,4.9-0.4,0.6-0.2-0.6
			c0.1-0.3,0.1-0.5,0.1-0.7c0-0.1,0-0.2,0-0.3c0.2-3.5,0.3-7,0.3-10.5c0-0.9,0-1.9,0-2.8c-0.1-0.5-0.2-0.9-0.2-1.2
			c-0.3-1.3-0.6-2.6-1-3.8c-0.2-0.6-0.8-1.9-1-2.4c-0.2-0.4-0.5-0.8-0.7-1.2c-0.1-0.1-0.2-0.1-0.3-0.2c-12.2-3.9-25.1-4.6-35.9-12.6
			c-13.3-9.8-19.2-23.5-19-40c0.1-5.6,0.7-11.2,1-16.8c0.4-6.9,0.6-13.7,1.8-20.6c2.6-14.2,8.5-28.5,16.5-40.6
			c5.4-8.2,11.3-14.5,19-20.4c5.2-4,10.7-7.4,16.2-10.8c1.6-1,3.2-2,4.8-3c-7.5-4.5-14.4-9.8-20.8-15.7c-2.9-2.7-5.7-5.4-8.6-8
			c-1.3-1.1-2.5-2.3-3.9-3.4c-0.2-0.2-0.4-0.4-0.6-0.5c-0.2-0.1-0.4-0.3-0.7-0.5c-6.3-4.2-12.7-8.6-18.3-13.7c-3.7-3.4-6.7-7-9.7-11
			c-0.1-0.1-0.2-0.3-0.3-0.4c-0.1-0.1-0.3-0.3-0.4-0.5c-1-1.2-2-2.3-3-3.4c-4.1-4.5-8.4-8.8-13-12.7c-0.6-0.5-4-3.1-3.4-2.7
			c-0.7-0.5-1.4-1-2.2-1.5c-2.5-1.7-5.1-3.3-7.7-4.7c-1.3-0.7-2.7-1.4-4.1-2.1c-0.6-0.3-3.3-1.4-2.8-1.3c-2.3-0.9-4.6-1.7-6.9-2.3
			c-7.6-2.1-15.5-3.5-23.2-4.8c-0.5-0.1-5.2-0.7-3-0.5c-1.4-0.2-2.8-0.3-4.2-0.4c-3.6-0.3-7.2-0.1-10.8-0.4
			c-9-0.8-16.6-3.2-24.6-7.3c-4.3-2.2-8.5-4.9-12.9-7c-0.7-0.3-1.8-0.7-2.5-1c-3.7,0-7.4,0-11.1,0c-7.5,0-14.9,0-22.4,0
			c-4.5,0-8.9,0.3-13.4,0.3v-40c1.4,0,2.7-0.1,4.1-0.1c14.4,0,28.9-0.7,43.3-0.2c12.8,0.5,22.8,7.2,33.8,12.8c1.1,0.5,7,3,1.7,1
			c1.3,0.5,2.6,1,4,1.3c0.4,0.1,0.9,0.2,1.4,0.2c1.3,0,2.6,0,3.8,0.1c8.4,0.4,16.8,1.5,25.1,3c15.2,2.8,29.8,6.1,43.5,13.5
			c12.1,6.5,23.2,15.3,32.6,25.2c2.5,2.6,4.8,5.2,7.1,7.9c1.6,1.9,3,3.9,4.5,5.8c-1.8-2.5,1,1.1,1.5,1.6c1.8,1.8,3.7,3.6,5.7,5.3
			c0.5,0.3,2.2,1.6,2.5,1.8c1.3,0.9,2.7,1.8,4,2.7c7.1,4.7,13.4,10.3,19.6,16.1c2.4,2.3,4.8,4.6,7.3,6.7c0.7,0.6,1.4,1.2,2.2,1.9
			c0.4,0.2,2.2,1.5,2.6,1.8c2.2,1.4,4.6,2.9,6.9,4.1c0.4,0.1,0.8,0.3,1.2,0.4c0.6,0,1.2,0,1.8,0c0.8-0.1,1.9-0.3,2.4-0.4
			c4.7-1.1,9.2-1.4,14-1.6c2-0.1,4-0.3,6-0.5c0.9-0.1,2.8-0.4,3.1-0.4c3.6-0.7,7.2-1.4,10.8-2.4c8.3-2.3,15.8-5.9,24.6-5.5
			c5,0.3,10.4,0.5,15.1,2.3c2.2,0.8,4.3,1.7,6.4,2.6c-0.4-0.3-0.8-0.6-1.2-0.9c1.5,0.3,3,0.5,4.6,0.8c0.6,0.1,3.6,0.4,3.8,0.5
			c2,0.2,3.9,0.4,5.9,0.6c3.9,0.4,7.8,0.8,11.7,1.3c3.7,0.5,7.5,0.9,11.2,1.5c0.7,0.1,6.7,0.3,2.3,0.3c3.5,0,7.1,0,10.6,0
			c7.1,0,14.2,0,21.3,0c14,0,27.9,0,41.9,0c7.9-8.8,14.4-19.1,23.4-26.9c2.4-2.1,5.3-4.9,8-6.4c0.3-0.2,0.6-0.4,0.9-0.6
			c0.5-0.6,1-1.2,0.8-0.9c0.9-1.2,1.9-2.5,2.9-3.7c3.9-4.6,8-7.2,13.6-9.5c1.4-0.6,2.7-1.1,4.2-1.5c0.7-0.2,2.8-1.1,2.8-1.1
			c0,0,0,0,0,0c0.5-0.8,1-1.6,1.5-2.5c0.8-1.5,1.7-3,2.4-4.5c0.2-0.5,0.4-0.9,0.5-1.1c0-0.1,0.1-0.2,0.1-0.3
			c2.3-6.2,4-12.6,5.1-19.2c0.3-1.6,0.5-3.2,0.8-4.8c0.1-0.8,0.3-2.6,0.4-3c0.4-3.3,0.7-6.7,1.1-10c0.8-7.4,1.5-14.9,3.3-22.1
			c3.1-12.9,9.7-27.3,22.5-33.1c2.7-1.2,5.4-2.6,8.3-3.4c1.9-0.6,1.8-0.4-0.5,0.6c1.6-0.7,3.2-1.3,4.8-2c2.4-0.9,5-1.5,7.4-2.3
			c0.4-0.3,0.8-0.6,1.2-0.9c2.5-1.1,5-2.6,7.8-3.1c1.3-0.3,2.7-0.4,4-0.5c0,0,0,0,0.1-0.1c1.3-1.3,2.6-2.6,3.9-3.9
			c3.2-3.2,6.5-6.7,10.5-9c3.8-2.2,7.7-3,11.7-4.5c0.2-0.1,0.3-0.1,0.5-0.2c0,0,0.1,0,0.1,0c0.8-0.4,1.6-0.8,2.3-1.3
			c0.4-0.6,0.8-1.2,1.2-1.8c2.1-3,4-6.1,5.7-9.3c2.9-5.6,5.3-11.6,8.3-17.2c1.3-2.4,2.6-4.7,4.1-7.1c-0.6-1.8-0.9-3.8-0.9-5.8
			c0-2.9-0.1-5.9-0.3-8.8c-0.1-1.6-0.2-3.2-0.4-4.8c-0.8-4.8-1.9-9.5-3.3-14.2c-0.8-2.5-1.6-4.9-2.5-7.3c-0.3-0.8-1.6-3.7-2.1-4.9
			c-1-1.6-2.4-3.5-1.5-2.6c-0.7-0.8-1.5-1.6-2.3-2.4c-0.3-0.2-0.7-0.6-1.2-0.9c-0.4-0.2-0.7-0.5-1.1-0.7c-1.3-0.8-2.6-1.5-4-2.2
			c-0.6-0.1-4-1.4-4.8-1.7c-1.4-0.4-2.9-0.7-4.3-1c-0.9-0.1-3.9-0.4-4.8-0.4c-2.7,0-5.5,0-8.2-0.1c-5.4-0.1-10.8-0.4-16.2-0.6
			c-15.6-0.7-31.3-1.2-46.8,0.7c2.9-0.3-0.7,0.6-2.6,1.2c-0.9,0.4-2.5,1.2-2.8,1.3c-1.2,0.6-2.5,1.2-3.7,1.9
			c-0.4,0.3-0.8,0.6-1.1,0.9c0,0,0,0.1-0.1,0.1c-0.6,1.1-1.2,2.1-1.8,3.2c-1.1,2.3-2.1,4.6-3.2,6.8c-3.4,6.7-8.6,11.8-14.1,16.8
			c-4.8,4.4-9.8,9.3-15.6,12.4c-1.6,1.2-3.1,2.4-4.7,3.6c-1.2,0.9-2.5,1.8-3.8,2.6c-2.6,1.6-5.3,3.1-7.9,4.8
			c-0.3,0.2-0.6,0.4-0.8,0.5c0,0,0,0,0,0c-0.2,0.2-0.5,0.5-0.7,0.7c-0.5,0.7-1.1,1.7-1.5,2.4c0,0.1-0.1,0.2-0.1,0.3
			c-0.3,1-0.6,1.9-0.9,2.9c-0.6,2-1.1,4.1-1.5,6.2c-0.9,4.3-1.6,8.7-2.5,13c-1.8,9.5-4.3,19.7-10.1,27.5
			c-9,12.3-23.2,19.2-38.7,18.1c-5.1-0.4-10.3-1-15.2-2.2c-1.6-0.4-3.2-0.8-4.8-1.3c-1.1-0.3-5.8-1.1-0.8-0.7
			c-7.1-0.5-13.4-1.9-20-4.3c-1.5-0.5-3-1.1-4.6-1.5c-0.2-0.1-0.4-0.1-0.7-0.1c-2.8-0.1-5.6,0-8.5-0.1c-6.6-0.2-13.4-0.7-19.9-2.5
			c-8.3-2.2-15.5-7.3-23.1-11.1c-6-3-11.9-6.2-17.2-10.2c-12-9.2-21.4-21.2-27.5-35c-6.7-15.2-8.9-30.5-9.2-47
			c-0.4-16.1,0.3-32.2-0.8-48.2c-0.2-2.5-0.3-4.9-0.6-7.4c0-0.4-0.1-0.7-0.1-0.9c-0.5-2.6-0.9-5.1-1.5-7.6
			c-1.3-5.2-2.7-10.4-4.7-15.4c-0.3-0.6-0.6-1.3-0.9-1.9c-0.6-1.2-1.2-2.5-1.9-3.7c-1.3-2.4-2.8-4.8-4.4-7.1
			c-0.1-0.1-0.1-0.2-0.2-0.2c0,0,0-0.1-0.1-0.1c-0.9-1-1.8-2.1-2.8-3c-1-1-1.9-1.9-3-2.8c-0.1-0.1-0.3-0.2-0.4-0.3
			c-2.6-1.7-5.1-3.2-7.5-5.3c3.2,2.8-0.2,0.3-1.1-0.2c-3.6-2-7-4.6-9.7-7.7c-0.5-0.6-1-1.3-1.5-1.9c-1.5-0.4-3-0.7-4.6-0.9
			c1.4,0.2-3.4-0.4-3.7-0.4c-3.9-0.4-7.8-0.6-11.7-0.8c-7.7-0.3-15.5-0.2-23.2-0.2c-3.6,0-7.2,0-10.8,0c-1,0-2,0-2.9,0
			c-0.6,0.3-1.3,0.6-1.6,0.8c-1.3,0.7-2.6,1.5-3.9,2.4c-0.2,0.1-0.3,0.2-0.4,0.3c-0.1,0.1-0.2,0.2-0.4,0.4c-1.1,1.1-2.3,2.1-3.3,3.3
			c-0.3,0.4-0.6,0.7-0.8,0.9c-1,1.4-2.1,2.8-3.2,4.2c-1,1-2,2-2.9,3.1c-1.9,2.1-3.7,4.3-5.5,6.5c-0.5,0.6-2.6,3.3-1.6,2
			c-0.5,0.6-0.9,1.2-1.4,1.8c-2.5,3.2-4.9,6.5-7.5,9.7c-8.2,10.2-18,19.6-30.1,25c0.2-0.1-1,0.5-2.5,1.2c-1.2,3.5-2.6,6.8-5.4,9.6
			c-2.4,2.4-4.6,4.8-7.1,7.1c-12.1,10.8-26.1,15.4-42.3,14.1c-4.6-0.4-9.2-1-13.8-1.6c-0.5-0.1-1.1-0.1-1.6-0.2
			c1.6,0.2,0.6,0.1-0.6-0.1c-0.6-0.1-1.2-0.2-1.8-0.2c0.7,0.1,1.3,0.2,1.7,0.2c-0.4-0.1-0.9-0.1-1.2-0.1c-6-0.7-12.1,0-18.1-0.1
			c-0.9,0-1.9,0-2.8,0v-40c7.4,0,14.8-0.7,22.1,0.2c3.2,0.4,6.4,0.9,9.6,1.3c0.2,0,0.5,0.1,0.8,0.1c0.9,0.1,1.9,0.2,2.8,0.3
			c4.1,0.4,8.2,0.7,12.3,0.4c0.2,0,0.3-0.1,0.5-0.1c0.1,0,0.3-0.1,0.4-0.1c0.5-0.3,1.3-0.7,2-1c0.9-0.8,3.3-2.7,3.8-3.3
			c0.6-0.6,1.2-1.2,1.8-1.8c2.7-7,6.2-13.3,13.1-17.6c2.3-1.4,4.8-2.3,7.3-3.3c0.5-0.2,1.7-0.8,2.2-0.9c1.9-1,3.8-2.1,5.5-3.3
			c0.1-0.1,0.2-0.2,0.3-0.2c0.1,0,0.1-0.1,0.2-0.1c1.1-0.9,2.1-1.9,3.1-2.9c2-2,4-4,5.8-6.2c1.2-1.4,2.4-2.9,3.6-4.4
			c0.6-0.8,3.6-4.7,0.4-0.4c2.5-3.2,5-6.5,7.5-9.7c1.7-2.2,3.5-4.5,5.3-6.7c0.9-1.1,1.8-2.2,2.8-3.2c0.6-0.7,3.7-4.3,0.7-0.4
			c10-13.3,25.3-26.6,42.9-26.6c13.7,0,27.6-0.4,41.3,0.4c-0.1-0.9-0.2-1.8-0.3-2.7c-0.1-0.9-0.3-2-0.3-2.4c-1.1-7-2.4-14-3.8-20.9
			c-3-14.8-6.9-29.3-4.3-44.5c0.7-4,2.1-8.2,4.3-11.7c1.1-1.8,2.3-3.5,3.7-5.2c0,0,0.5-0.5,1-1.1c0,0,0.1-0.1,0.1-0.1c0,0,0,0,0-0.1
			c0,0,0,0-0.1,0.1c0,0,0-0.1,0.1-0.1c0.1-0.2,0.1-0.5,0.2-0.9c0.3-1.2,0.6-2.3,0.8-3.5c0-0.1,0-0.2,0.1-0.3
			c0.1-1.1,0.2-2.3,0.2-3.4c0.2-4.9,0-9.7-0.2-14.6h40c0.3,5.3,0.6,10.6,0.2,15.9c-0.5,6.7-1.2,13.5-3.6,19.8
			c-1.9,4.9-4,9.5-7.7,13.4c0,0.1,0,0.1,0,0.2c0,0.3,0,0.5-0.1,0.8c0,1.2-0.1,2.5-0.1,3.7c0,0.7,0.1,1.5,0.2,1.9
			c0.3,1.4,0.5,2.7,0.8,4.1c1.3,6.6,2.7,13.1,4,19.7c2.6,13.6,5.2,27.4,5.6,41.3c1.5,1.2,2.9,2.6,4.1,4.1c0.8,1,1.6,2,2.5,3
			c0.1,0.1,0.2,0.2,0.3,0.3c0.1,0.1,0.3,0.1,0.5,0.2c1.3,0.7,2.6,1.4,3.9,2.2c4.5,3.6,5.4,4.2,2.5,1.8c0.4,0.2,0.8,0.5,1.2,0.7
			c5.5,3.7,11,8,15.3,13.2c18.4,22.3,25.3,50,26.4,78.4c0.6,15.9-0.1,31.9,0.7,47.9c0.2,3.5,0.4,6.9,0.7,10.4c0-0.4,0.4,2.2,0.6,2.9
			c0.4,1.4,0.7,2.9,1.2,4.3c0.5,1.4,0.9,2.9,1.4,4.3c0.2,0.5,0.9,2.2,1.2,2.7c1.1,2.2,2.2,4.4,3.5,6.4c1.1,1.8,2.2,3.5,3.4,5.2
			c0.2,0.2,0.3,0.4,0.4,0.6c0.1,0.1,0.1,0.1,0.2,0.2c1.9,2.2,3.9,4.4,6.1,6.3c0.2,0.2,0.4,0.3,0.5,0.5c1.2,0.8,2.5,1.6,3.7,2.4
			c3.1,1.9,6.3,3.6,9.5,5.3c3.7,1.9,7.5,3.7,11.1,5.8c0.8,0.5,5.9,2.7,1.4,1.4c1.3,0.4,2.6,0.8,4,1.1c0.6,0.1,1.2,0.2,1.7,0.4
			c0.7,0.1,1.5,0.1,1.9,0.2c3,0.2,6,0.2,9,0.2c7.2,0,13.9,1,20.7,3.5c2.5,0.9,5,1.8,7.5,2.4c0.2,0,0.3,0.1,0.5,0.1
			c0.1,0,0.1,0,0.2,0c2.9,0.1,5.7,0.4,8.4,1.2c3.6,1.1,7.3,2.2,11.1,2.9c0.2,0,0.4,0.1,0.5,0.1c0.2,0,0.5,0,0.8,0
			c1,0,1.9,0.1,2.9,0.1c0.7-0.1,2.1-0.4,2.7-0.5c0,0,0.1,0,0.1,0c0.3-0.5,0.7-1.1,0.9-1.7c0.1-0.1,0.1-0.3,0.2-0.5
			c0.1-0.4,0.3-0.8,0.4-1.1c1.3-4.1,2.2-8.3,3-12.5c2-10.3,3.8-20,8-29.6c5.5-12.7,16.7-18.6,27.6-25.9c0.4-0.3,0.7-0.5,0.9-0.6
			c0.3-0.3,0.7-0.6,1-0.9c2.4-2.2,3.7-2.7,5.9-4.2c0.6-0.4,2-1.5,2.1-1.5c0.4-0.4,0.9-0.7,1.3-1.1c2.3-2,4.5-4.1,6.7-6.2
			c1-1,2.1-2,3.1-3c0.1-0.1,0.1-0.1,0.2-0.2c2.3-4.2,4-8.6,6.5-12.7c-1.1-2.4-1.7-5.1-1.6-7.9c0.1-24,5.8-48.4,28.4-60.9
			c2.4-1.3,4.6-2.2,7.2-3.3c-4.4,1.8,0.5-0.4,1.1-0.8c2.3-1.3,4.5-2.6,6.7-4c4.5-2.9,8.9-6.1,13.8-8.3c7.4-3.3,14.4-5.7,22.7-5.7
			c4.1,0,8.2,0,12.2,0c0.9-0.8,1.8-1.6,2.7-2.4c2.7-2.5,5.3-5.3,8-7.8c2.3-2.2,4.9-4.1,7.1-6.4c0.5-0.5,1.5-1.8,1.7-2
			c0.3-0.5,0.6-1,0.8-1.6c-2.5,5.6,1.6-3.6,2.8-5.2c1.5-2,3.1-4.2,4.9-6.1c1.8-1.9,3.7-3.6,5.7-5.3c2-1.8,4-3.6,5.8-5.6
			c0.2-0.3,0.4-0.5,0.6-0.6c0.2-0.3,0.3-0.6,0.5-0.8c1-5.5,2.9-10.6,5.2-15.7c0.1-4.8,0.4-9.9,1.9-14.3c1.1-3,2.2-6.5,4.1-9.2
			c1.2-1.6,2.3-3.2,3.5-4.8c0.1-0.1,0.2-0.3,0.3-0.4c1.9-2.6,3.9-5.2,6-7.7c0.6-0.7,1.2-1.3,1.7-2c0.4-0.7,0.9-1.4,1.3-2.1
			c0.3-0.8,0.9-2.2,1.8-4.2c-1.6,3.5-0.2-0.2,0.1-1.4c0.7-14.7,0.7-29.6,0-44.5h39.7c0.2,6.2,0.3,12.4,0.4,18.6
			c0.1,8.1,0.4,16.3,0,24.4c-0.2,4.5-0.5,9.2-1.8,13.5c-0.8,2.8-1.9,5.4-3.1,8.1c2.3-5-1.1,2.9-1.9,4.6c-2,3.9-4.7,7.4-7.6,10.8
			c-0.8,0.9-1.6,1.8-2.4,2.7c-1.2,2-2.1,3.6-4,5.6c0,0.1,0,0.1-0.1,0.2c-0.3,5.9-0.1,11.2-2.9,16.8c-0.6,1.2-1.1,2.3-1.7,3.5
			c-0.1,0.3-1.1,2.8-1.2,3.2c-0.1,0.5-0.2,0.9-0.3,1.1c0,0,0,0.1,0,0.1c-0.2,4.3-1.4,7.9-3.5,11.6c-2.1,3.7-4.7,7.2-7.5,10.4
			c-3.8,4.3-8.5,7.6-12.4,11.9c-0.6,1.6-1.4,3.2-2.1,4.5c-2,3.4-4.4,6.7-7.2,9.5c-4.7,4.7-9.8,9.2-14.6,13.8
			c-7.1,6.7-16.2,15.4-26.6,15.4c-4.2,0-8.4,0-12.6,0c-1.8,0-3.6,0-5.4,0c-0.4,0-0.7,0-0.9,0c-0.8,0.2-1.6,0.4-2.4,0.6
			c-0.6,0.3-1.4,0.6-1.8,0.8c-2.6,1.4-5,2.9-7.5,4.5c-3,2-6,4-9.1,5.7c-1.4,0.8-2.8,1.6-4.3,2.2c-1.6,0.7-7.4,3.8-5.8,2.8
			c-0.7,0.4-1.3,0.8-2,1.2c0,0,0,0-0.1,0c-0.8,0.7-1.6,1.5-2.3,2.3c-0.6,0.9-1.1,1.8-1.6,2.8c-0.1,0.2-0.1,0.3-0.1,0.4
			c-0.3,1-0.6,2-0.9,3.1c3.2-0.4,6.4-0.7,9.5-1c7.7-0.7,15.4-1,23.2-0.9c14.8,0.2,29.8,0.5,44.5,1.4c13.4,0.8,28,4.2,39,12.2
			c6.8,4.9,12.8,10.2,17.2,17.4c3.7,5.9,6,12.9,8.3,19.5c0.9,2.5,1.6,5,2.3,7.6c2.6-3.1,5.4-6.1,8.6-8.7c5.8-4.8,11.8-9.4,18.7-12.5
			c2.5-1.1,5-2.2,7.6-3.2c0.5-0.2,2.1-1,2.6-1.3c2-1.1,3.9-2.3,5.8-3.5c12.1-7.9,24.5-17.3,39.1-19.7c5.3-0.9,10.7-1.6,16.1-1.8
			c1.8-0.1,3.6-0.1,5.4-0.1c0.5,0,0.9,0,1.2,0c0.2,0,0.4-0.1,0.7-0.2c6.8-1.5,13.8-2.5,20.8-2.8c3.3-0.1,6.5,0,9.8-0.1
			c1,0,1.9-0.1,2.9-0.1c0.7-0.1,2-0.4,2.5-0.5c4.6-1.1,9.2-2.6,13.7-4.4c-0.8,0.2,3.2-1.7,3.9-2.1c1.4-0.8,2.7-1.6,4.1-2.4
			c3.8-2.2,7.6-4,11.6-5.7c6.3-2.6,12.9-2.7,19.6-2.7c5.4,0,10.8,0,16.2,0v40c-1.2,0-2.4,0-3.6,0c-5.9,0-11.8-0.3-17.7,0
			c-0.4,0.1-0.8,0.2-1.1,0.3c0,0,0,0,0,0c-0.2,0.1-0.4,0.2-0.7,0.4c-2.8,1.5-5.5,3.2-8.2,4.7c-12.2,6.9-27.3,12-41.4,12.6
			c-5.3,0.2-10.7,0-16,0.5c-0.8,0.1-2,0.3-2.4,0.4c-1.7,0.3-3.4,0.7-5,1.1c-4.8,1.2-9.5,1.1-14.4,1.2c-2.4,0.1-4.8,0.1-7.2,0.4
			c-0.2,0-0.5,0-0.7,0.1c-0.3,0.1-0.7,0.2-1.2,0.3c-1.4,0.3-2.8,0.6-4.2,1c-0.8,0.4-2.4,1.1-2.7,1.3c-5.6,2.9-10.7,6.3-15.9,9.7
			c-6.4,4.3-12.7,8.2-20,11c-0.4,0.2-0.8,0.3-1,0.4c-1.3,0.6-2.6,1.3-3.9,2c-1.9,1.1-3.8,2.2-5.6,3.5c-0.5,0.4-2.6,2.2-3.1,2.6
			c-1,1-2.1,1.9-3,3c-1,1-1.9,2.1-2.9,3.1c-0.3,0.4-1.3,1.6-1.7,2.1c-3.5,5-6.5,10.2-10.7,14.7c-4.1,4.4-8.8,8-13,12.3
			c-0.6,0.7-1.3,1.4-1.9,2.1c-0.5,0.6-1.1,1.5-1.4,1.9c-1.5,2.5-3.1,5-4.4,7.6c-3.2,6.2-5.7,12.7-9.1,18.7
			c-3.3,5.9-7.4,13.5-12.5,18c-6.5,5.8-13.7,9.2-21.8,12c-0.1,0.1-0.3,0.1-0.4,0.2c-0.6,0.5-1.2,1.1-1.4,1.2
			c-2.6,2.6-5.1,5.1-7.7,7.7c-5.3,5.3-10.6,7.6-17.9,8.5c-0.4,0.1-0.8,0.1-1.3,0.1c-2.6,1.5-5.4,2.7-8.6,3.6c-1.5,0.4-3,0.8-4.5,1.3
			c-1,0.4-1.6,0.5-1.6,0.5c-1.1,0.5-2.2,0.9-3.3,1.4c-0.7,0.2-2,0.7-2.9,1c-0.1,0.1-0.1,0.2-0.2,0.3c-0.2,0.4-0.6,1.2-0.8,1.7
			c-0.1,0.4-0.3,0.8-0.4,1.2c-0.8,2.5-1.4,5.1-1.9,7.7c-0.2,0.9-0.4,1.8-0.6,2.7c0.3-2.8,0.3-3,0-0.6c-0.2,1.7-0.4,3.3-0.6,5
			c-0.4,3.3-0.7,6.7-1.1,10c-0.9,7.8-1.8,15.7-3.4,23.4c-1.7,8.3-4.3,16.1-7.7,23.8c-3.2,7.2-7.3,15.1-13.5,20
			c-5,4-9.7,6.5-15.7,8.6c-0.7,0.2-1.3,0.4-2,0.7c-0.3,0.4-0.5,0.6-0.7,0.8c-1.2,1.6-2.5,3.5-3.9,4.9c-1.7,1.8-3.6,3.1-5.6,4.6
			c-0.6,0.4-2.9,2-2,1.2c-3.3,2.9-6.4,6.1-9.2,9.4c2.8,2.1,5.3,4.7,7.5,7.7c4.1,5.7,6.4,12.6,8.9,19.1c0.3,0.7,0.6,1.4,0.8,2.1
			c0.3,0.6,0.9,2,1.2,2.5c1.3,2.6,2.8,5,4.1,7.6c7,14.2,13.9,29.9,13.3,46.2c-0.3,8.3-3.2,14.4-5.5,22c-0.4,1.4-0.7,5.4-0.5,0.4
			c-0.1,1.6-0.3,3.2-0.4,4.9c-0.2,3.4-0.3,6.7-0.1,10.1c0.1,2.3,0.3,4.6,0.5,6.8c0,0.2,0.1,0.5,0.1,0.6c0,0.2,0.1,0.5,0.2,0.9
			c0.6,3.4,1.2,6.9,2,10.3c1.5,6.8,3.4,13.5,5.3,20.2c3.5,12,6.4,24.2,9.7,36.3c0.1,0.2,0.1,0.5,0.2,0.7c6.2-3.4,13-5.3,19.6-7.8
			c0.3-0.1,0.6-0.2,0.8-0.3c0.2-0.1,0.5-0.3,0.8-0.4c1.5-0.9,3-1.7,4.5-2.6c1.7-1,3.3-2,4.9-3.1c0.4-0.4,2-1.7,2.4-2
			c1.2-1,2.3-2,3.4-3.1c2.2-2,4.3-4.1,6.5-6.1c2.8-2.5,5.7-4.8,8.6-7.1c0.1-0.1,0.4-0.6,1.4-1.6c0.9-0.9,1.8-1.8,2.7-2.7
			c2.5-2.6,5.1-5.3,7.4-8.1c0.2-0.2,0.3-0.4,0.5-0.6c0.1-0.2,0.3-0.5,0.5-0.8c0.5-0.7,1-1.5,1.4-2.3c0-1.8,0-3.5,0-5.3
			c0-2.9,0-5.8,0-8.7c0-12.6,0.5-26.9,10.7-36c5.5-5,11-6.8,17.5-9.5c-2.1,0.8,1.2-0.7,2-1.1c0.5-0.3,1.1-0.7,1.6-1
			c0.3-0.4,2.9-2.7,3.5-3.4c0.1-0.1,0.1-0.1,0.2-0.2c0.7-1.1,1.4-2.1,2.1-3.2c1.4-2.4,2.7-4.8,3.8-7.4c0.2-0.3,0.5-1.2,0.8-1.9
			c0.3-0.9,0.7-1.8,1-2.8c1-3.2,2.2-6.4,3.7-9.4c5.9-11.6,17.4-17.8,29.5-20.9c-4,1.9-3.2,1.7,2.4-0.8c0.4-0.1,0.7-0.3,1.1-0.4
			c1.2-0.4,2.4-0.7,3.7-1c2.8-0.6,5.6-1,8.4-1.5c0.9-0.2,1.9-0.3,2.8-0.5c0.3-2.9,0.6-5.7,1.2-8.5c1-5.1,3.3-8.8,6.4-12.8
			c-0.8,3.7-0.5,2.5,0.1,0.1c0,0,0-0.1,0-0.2c0,0,0-0.1,0.1-0.1c0,0,0,0,0,0c0,0,0,0.1-0.1,0.1c0-0.1,0-0.4,0.1-0.7
			c0.1-0.1,0.1-0.2,0.1-0.3c0,0,0,0,0-0.1c0.5-2.1,1.1-4.5,1.3-5.4c0.6-1.8,1.2-3.5,1.8-5.3c1.1-3.3,2.3-6.5,3.6-9.7
			c1.1-2.5,2.1-5.1,3.2-7.6c0.1-0.1,0.1-0.3,0.2-0.4c0-0.1,0.1-0.3,0.2-0.5c1-3,2-6.1,2.8-9.2c2-7.3,4.1-14.8,7.8-21.6
			c3.6-6.7,9-11.2,14-16.7c4.9-5.3,9.1-11.1,13.6-16.7c2-2.4,4-4.8,6.2-7c2.3-2.2,5.2-4.1,7.3-6.5c0.3-0.4,0.6-0.7,0.7-0.9
			c0.2-0.3,0.5-0.6,0.7-1c0.8-1.2,1.6-2.4,2.3-3.6c1.4-2.2,2.8-4.4,4.4-6.5c5-6.6,11-12.8,19.6-14.4c12-2.2,25.2-0.8,37.5-0.8
			c11.5,0,23-0.2,34.6-0.2v40.2c-8.2,0-16.4-0.1-24.6-0.1c-10.4,0-20.8,0-31.3,0c-1.5,0-3,0-4.4,0c-1.2,1.8-2.3,3.6-3.5,5.4
			c-7.2,10.5-17.2,18.2-25,28.3c-3.8,4.8-7.6,10.7-12.4,14.5c-1.2,0.9-2.4,1.9-3.4,3c-0.1,0.1-0.2,0.2-0.3,0.3
			c0,0.1-0.1,0.1-0.1,0.2c-0.6,1-1.2,2.1-1.7,3.2c-1.8,5.2-3.1,10.6-4.7,15.8c-1.3,4.2-2.7,8.5-4.7,12.5c-0.3,0.6-1.3,3.1-1.2,2.6
			c-0.1,0.4-0.3,0.7-0.4,1.1c-1.3,3.4-2.5,6.8-3.6,10.2c-0.4,1.2-1.6,7-1.2,0.9c-0.2,2.1-0.5,4.2-0.9,6.3c-1.5,5-3.7,9.5-6.6,13.6
			c0,0,0,0,0,0c-0.8,7.7-1.4,15.5-5.8,22.2c-2.7,4.1-6.1,7.5-10.4,9.8c-5.7,2.4-6.4,2.7-2.1,0.9c-1.6,0.7-3.2,1.3-4.8,2
			c-1.1,0.4-2.3,0.8-3.5,1.1c-5.7,1.3-11.9,1.5-17.4,3.6c7.7-2.9-5.2,1.6-7.2,2.3c-0.4,0.1-0.9,0.3-1.3,0.5
			c-0.4,1.2-0.7,2.4-1.2,3.5c-2.6,6.3-5.1,12.9-8.7,18.8c-7.8,12.9-18.3,21.3-32,26.6c0,0.6,0,1.2,0,1.8c0,3,0,6.1,0,9.1
			c0,10.2,0.6,19.7-4.5,29c-3.8,6.9-9,13.2-14.5,18.9c-3.8,4-7.5,8.1-12,11.2c-0.2,0.1-0.3,0.2-0.4,0.3c-1,0.8-1.9,1.7-2.9,2.5
			c-4.5,4.1-8.8,8.4-13.6,12.2c-1.8,1.4-3.5,2.7-5.3,4c7.2,2.7,14.6,5.6,21.1,9.7c0.9,0.6,5.3,3.1,0.9,1.4c1.9,0.7,4.7,1.7,6.4,3
			c3,2.2,6.1,4.4,8.5,7.3c2.7,3.3,5.2,6.8,7.8,10.2c0.1,0.1,0.2,0.3,0.4,0.4c0.6,0.7,1.3,1.4,2,2.1c1.2,1,3.5,2.8,4.2,3.6
			c1,1,2,2.1,2.9,3.2c2.5,2.9,5,6,7.1,9.2C672.6-48,678.5-23.1,677.9,0z M709.9-300.6c0.8-0.3,1.8-0.8,3.2-1.3
			c-0.9,0.3-1.8,0.7-2.7,1c0,0,0,0,0,0c0.2-0.1,0.4-0.1,0.6-0.2c-0.4,0.2-0.7,0.3-1,0.4C710-300.6,710-300.6,709.9-300.6z
			 M693.9-256.5C695.2-258.1,694.6-257.5,693.9-256.5L693.9-256.5z M692.5-254.9c0.1-0.1,0.2-0.2,0.3-0.3c0,0,0,0,0,0
			C692.7-255.1,692.6-255,692.5-254.9z M651.5-208.1C652.2-208.9,652-208.7,651.5-208.1C651.5-208.1,651.5-208.1,651.5-208.1z
			 M648.6-205.2c0.2-0.2,0.4-0.3,0.6-0.4c0,0,0,0,0,0C649.1-205.5,648.9-205.4,648.6-205.2z M854.7-634.8
			C857.1-634.9,856.1-634.9,854.7-634.8L854.7-634.8z M661.6-793.2C660.6-792,659-789.2,661.6-793.2L661.6-793.2z M628.2-729.4
			c0.1-0.1,0.2-0.2,0.3-0.4c0.2-0.7,0.4-1.4,0.7-2.1C628.9-731.1,628.5-730.2,628.2-729.4z M522-663.1c0.3-0.8,0.5-1.2,0.6-1.4
			c0,0,0,0,0,0C522.5-664.2,522.2-663.7,522-663.1z M90.1-661.9c-0.2,0.1-0.3,0.1-0.5,0.2C89.4-661.4,89.5-661.4,90.1-661.9z
			 M157.6-724.7C157.6-724.7,157.6-724.7,157.6-724.7c-0.2,0.1-0.4,0.2-0.7,0.3C157.2-724.5,157.4-724.6,157.6-724.7z M199.2-853.8
			c-0.1,0.1-0.1,0.1-0.2,0.2c0,0,0,0,0,0C199.1-853.6,199.2-853.7,199.2-853.8z M228.4-822.2C228.3-824.7,228.3-823.7,228.4-822.2
			L228.4-822.2z M254.7-663.6C254.9-661.6,254.8-662.5,254.7-663.6L254.7-663.6z M361.2-502.7C359.8-502.9,358.4-502.8,361.2-502.7
			L361.2-502.7z M412.6-532.4C410.3-530.7,411.6-531.5,412.6-532.4L412.6-532.4z M414.6-535.6C415-536.7,415.4-537.6,414.6-535.6
			L414.6-535.6z M414.1-533.3C415.2-533.7,415.8-534.1,414.1-533.3L414.1-533.3z M566.3-500.8c0.8-0.7,1.7-1.3,2.5-2
			C567.8-502.2,567-501.6,566.3-500.8z M511.2-394.9c-0.5,0.5-0.9,1-1.1,1.7C510.5-393.8,510.9-394.3,511.2-394.9z M88.8-440.6
			C89.7-440.6,90.2-440.6,88.8-440.6L88.8-440.6z M230.4-110.4C229.4-106.8,230.4-107.2,230.4-110.4
			C230.4-110.3,230.4-110.4,230.4-110.4z M216.1-191C216.6-190,217-189.3,216.1-191L216.1-191z M215.5-191.9
			C215.5-191.9,215.5-191.9,215.5-191.9c0.1,0.1,0.1,0.1,0.2,0.1c0,0,0,0,0,0C215.6-191.8,215.5-191.9,215.5-191.9z M214.3-192.6
			c0.4,0.2,0.7,0.5,1.1,0.7c0,0,0,0,0,0C215.2-192.1,214.8-192.3,214.3-192.6z M487.6-378.8C488.5-379.5,488.9-380.1,487.6-378.8
			L487.6-378.8z M606.6-69C606.6-68.9,606.6-68.9,606.6-69C608.7-68.1,608.7-68.1,606.6-69z"/>
		<path class="st1" d="M22.2-634.4C22.2-634.4,22.2-634.4,22.2-634.4c0.2,0,0.4,0.1,0.6,0.1C22.6-634.4,22.4-634.4,22.2-634.4z"/>
		<path class="st1" d="M713.7-321.1c0-0.2,0.1-0.5,0.1-0.7C713.1-320.6,711.1-318,713.7-321.1z"/>
		<path class="st1" d="M713.8-321.9C713.8-321.9,713.8-321.9,713.8-321.9c0-0.1,0-0.1,0-0.2C713.8-322,713.8-321.9,713.8-321.9z"/>
		<path class="st1" d="M713.6-321.1C713.7-321.1,713.7-321.2,713.6-321.1C713.7-321.2,713.7-321.2,713.6-321.1
			C713.7-321.2,713.7-321.2,713.6-321.1C713.7-321.1,713.7-321.1,713.6-321.1z"/>
	</g>
</pattern>
<pattern  id="SVGID_1_" xlink:href="#Nouvelle_nuance_de_motif_12" patternTransform="matrix(0.4848 0 0 0.4848 -2565.686 -1391.3251)">
</pattern>
<rect x="8.9" y="1" class="st2" width="5669.3" height="3968.5"/>
</svg>
