<svg width="26" height="32" viewBox="0 0 26 32" fill="none" xmlns="http://www.w3.org/2000/svg">
<path d="M8 10H10V26H8V10ZM12 10H14V26H12V10ZM16 10H18V26H16V10ZM0 4H26V6H0V4ZM18 4H16V3C16 2.4 15.6 2 15 2H11C10.4 2 10 2.4 10 3V4H8V3C8 1.3 9.3 0 11 0H15C16.7 0 18 1.3 18 3V4Z" fill="black"/>
<path d="M19 32.0004H7C5.4 32.0004 4 30.7004 3.8 29.1004L2 5.10039L4 4.90039L5.8 28.9004C5.8 29.5004 6.4 30.0004 7 30.0004H19C19.6 30.0004 20.1 29.5004 20.2 28.9004L22 4.90039L24 5.10039L22.2 29.1004C22 30.7004 20.6 32.0004 19 32.0004Z" fill="black"/>
</svg>
